<?xml version="1.0" encoding="UTF-8"?>
<svg id="Layer_1" data-name="Layer 1" xmlns="http://www.w3.org/2000/svg" viewBox="0 0 284.04 60.7">
  <defs>
    <style>
      .cls-1 {
        fill: #e8e8ea;
      }
    </style>
  </defs>
  <path class="cls-1" d="M8.01,37.73c.89.7,2.42,1.66,4.58,2.87,2.17,1.21,4.25,1.82,6.23,1.82s2.98-.77,2.98-2.31c0-.7-.28-1.32-.84-1.85-.56-.54-1.59-1.15-3.08-1.85-1.49-.7-2.61-1.25-3.36-1.65-.75-.4-1.74-1.05-2.98-1.96-1.24-.91-2.18-1.85-2.83-2.83-1.87-2.66-2.8-6.04-2.8-10.15s1.53-7.57,4.58-10.4c3.06-2.82,7.06-4.23,12-4.23,3.36,0,6.46.36,9.31,1.08,2.85.72,4.32,1.67,4.41,2.83v.42c0,1.63-.51,3.7-1.54,6.19-1.03,2.5-1.75,3.89-2.17,4.17-2.99-1.54-5.66-2.31-8.01-2.31s-3.54.84-3.54,2.52c0,1.03.86,1.94,2.59,2.73.37.19.91.44,1.61.77.7.33,1.5.71,2.41,1.16.91.44,1.89,1,2.94,1.68,1.05.68,2.18,1.57,3.4,2.69,2.47,2.33,3.71,5.41,3.71,9.24,0,4.99-1.38,9.08-4.13,12.25-2.75,3.17-7,4.81-12.74,4.9-2.8,0-5.33-.23-7.6-.7-2.26-.47-4.23-1.38-5.92-2.73-1.68-1.35-2.52-2.99-2.52-4.9s.35-3.81,1.05-5.71c.7-1.89,1.45-3.14,2.24-3.75Z"/>
  <path class="cls-1" d="M49.45,54.95c-4.25,0-6.37-.47-6.37-1.4V8.19c0-1.59.72-2.38,2.17-2.38h12.32c6.91,0,11.89,1.42,14.94,4.27,3.06,2.85,4.59,6.98,4.59,12.39,0,4.48-1.45,8.59-4.34,12.32-1.45,1.87-3.57,3.36-6.37,4.48-2.8,1.12-6.07,1.68-9.8,1.68v12.53c0,.56-.88.95-2.62,1.16s-3.25.31-4.52.31ZM56.59,17.99v11.06h.91c1.63,0,3.01-.51,4.13-1.54,1.12-1.03,1.68-2.47,1.68-4.34s-.39-3.2-1.16-3.99c-.77-.79-2.13-1.19-4.09-1.19h-1.47Z"/>
  <path class="cls-1" d="M82.56,50.68V7.14c0-.98,2.37-1.47,7.1-1.47s7.1.49,7.1,1.47v34.3h10.78c.84,0,1.42,1.1,1.75,3.29.14,1.07.21,2.17.21,3.29s-.07,2.26-.21,3.43c-.37,2.24-.98,3.36-1.82,3.36h-21.56c-1.03,0-1.84-.42-2.45-1.26-.61-.84-.91-1.8-.91-2.87Z"/>
  <path class="cls-1" d="M146.61,54.95c-4.06,0-6.25-.65-6.58-1.96l-2.31-9.03h-11.13l-2.03,8.68c-.28,1.45-2.52,2.17-6.72,2.17-2.24,0-3.9-.13-4.97-.38-1.07-.26-1.61-.46-1.61-.6l12.39-47.39c0-.37,3.2-.56,9.59-.56s9.59.19,9.59.56l12.11,47.46c0,.33-1.07.58-3.22.77s-3.85.28-5.11.28ZM128.34,35.07h7.35l-3.15-14.49h-.42l-3.78,14.49Z"/>
  <path class="cls-1" d="M161.38,37.73c.89.7,2.42,1.66,4.58,2.87,2.17,1.21,4.25,1.82,6.23,1.82s2.97-.77,2.97-2.31c0-.7-.28-1.32-.84-1.85-.56-.54-1.59-1.15-3.08-1.85-1.49-.7-2.61-1.25-3.36-1.65-.75-.4-1.74-1.05-2.98-1.96-1.24-.91-2.18-1.85-2.83-2.83-1.87-2.66-2.8-6.04-2.8-10.15s1.53-7.57,4.58-10.4c3.06-2.82,7.06-4.23,12-4.23,3.36,0,6.46.36,9.31,1.08,2.85.72,4.32,1.67,4.41,2.83v.42c0,1.63-.51,3.7-1.54,6.19-1.03,2.5-1.75,3.89-2.17,4.17-2.99-1.54-5.66-2.31-8.01-2.31s-3.54.84-3.54,2.52c0,1.03.86,1.94,2.59,2.73.37.19.91.44,1.61.77.7.33,1.5.71,2.42,1.16.91.44,1.89,1,2.94,1.68,1.05.68,2.18,1.57,3.39,2.69,2.47,2.33,3.71,5.41,3.71,9.24,0,4.99-1.38,9.08-4.13,12.25-2.75,3.17-7,4.81-12.74,4.9-2.8,0-5.33-.23-7.59-.7-2.26-.47-4.24-1.38-5.92-2.73-1.68-1.35-2.52-2.99-2.52-4.9s.35-3.81,1.05-5.71c.7-1.89,1.45-3.14,2.24-3.75Z"/>
  <path class="cls-1" d="M234.81,53.62c0,.79-2.36,1.19-7.07,1.19s-7.07-.4-7.07-1.19v-16.1h-9.8v16.1c0,.79-2.36,1.19-7.07,1.19s-7.07-.4-7.07-1.19V7.21c0-.98,2.36-1.47,7.07-1.47s7.07.49,7.07,1.47v16.45h9.8V7.35c0-.65,1.17-1.12,3.5-1.4,1.21-.09,2.4-.14,3.57-.14l3.57.14c2.33.28,3.5.75,3.5,1.4v46.27Z"/>
  <path class="cls-1" d="M241.81,51.59V9.59c0-1.17.29-2.09.88-2.76.58-.68,1.34-1.02,2.28-1.02h11.69c7.42,0,13.05,1.87,16.91,5.6,3.85,3.73,5.77,9.61,5.77,17.64,0,17.17-7.33,25.76-21.98,25.76h-11.97c-2.38,0-3.57-1.07-3.57-3.22ZM255.25,19.11v20.93c0,.98.07,1.6.21,1.85.14.26.56.39,1.26.39,2.57,0,4.51-.96,5.84-2.87,1.33-1.91,2-5.1,2-9.56s-.69-7.36-2.07-8.71c-1.38-1.35-3.56-2.03-6.54-2.03h-.7Z"/>
</svg>