<svg width="114" height="115" viewBox="0 0 114 115" fill="none" xmlns="http://www.w3.org/2000/svg">
<g opacity="0.9" clip-path="url(#clip0_3665_1032)">
<path d="M106.726 103.034C107.854 103.034 108.944 103.018 110.034 103.04C110.734 103.053 111.434 103.098 112.131 103.171C112.402 103.198 112.686 103.295 112.925 103.439C113.675 103.897 113.703 104.739 112.933 105.143C112.403 105.421 111.777 105.598 111.19 105.615C107.638 105.717 104.086 105.749 100.534 105.822C94.1299 105.954 87.7274 106.089 81.3236 106.246C80.5338 106.266 79.7328 106.368 78.964 106.559C78.5811 106.654 78.257 107.035 77.9077 107.285C78.2458 107.539 78.5586 107.952 78.9247 108.018C80.444 108.291 81.9787 108.466 83.5092 108.666C85.8519 108.973 88.1988 109.232 90.5331 109.597C91.1812 109.697 91.8503 109.996 92.4002 110.387C93.3415 111.053 93.2742 112.159 92.2165 112.527C90.9651 112.962 89.6297 113.305 88.325 113.333C81.8987 113.473 75.4696 113.503 69.0419 113.548C68.4906 113.552 67.9308 113.407 67.3907 113.264C67.1228 113.192 66.8899 112.965 66.6416 112.809C66.6416 112.712 66.6416 112.614 66.6416 112.516C67.1032 112.35 67.5549 112.095 68.029 112.034C69.8611 111.796 71.7002 111.627 73.5365 111.415C73.9279 111.369 74.3235 111.284 74.6966 111.15C74.8678 111.089 75.1259 110.841 75.1063 110.722C75.0754 110.519 74.8818 110.236 74.7107 110.19C73.9896 109.995 73.2517 109.743 72.5209 109.748C69.227 109.767 65.9304 109.775 62.6422 109.957C55.8736 110.329 49.112 110.867 42.342 111.226C34.9884 111.616 27.6306 111.9 20.2728 112.187C18.877 112.242 17.47 112.141 16.077 111.996C15.6323 111.95 14.8453 111.505 14.8607 111.294C14.9098 110.585 15.6169 110.55 16.1233 110.526C18.7143 110.396 21.3067 110.321 23.8977 110.231C27.2378 110.115 30.5779 110.007 33.9166 109.885C34.1944 109.874 34.4904 109.848 34.7401 109.732C34.987 109.618 35.1848 109.381 35.405 109.197C35.1764 109.012 34.9674 108.715 34.7163 108.666C33.9124 108.512 33.096 108.382 32.2824 108.365C26.2053 108.245 20.1283 108.146 14.0513 108.057C10.5457 108.007 7.03861 108.007 3.53296 107.938C2.86662 107.925 2.17222 107.79 1.55218 107.534C1.2169 107.395 0.780625 106.854 0.811487 106.544C0.845155 106.205 1.33614 105.713 1.67843 105.656C2.71091 105.485 3.76723 105.481 4.81654 105.438C5.46885 105.412 6.12397 105.433 6.80574 105.433C6.7875 105.363 6.79031 105.27 6.75243 105.246C3.57785 103.098 1.98986 99.8544 1.52693 95.9475C0.943352 91.0231 1.42452 86.2298 3.76583 81.8591C4.55561 80.3839 5.55863 79.0018 6.65143 77.7722C8.28431 75.9339 10.3843 75.1238 12.7495 75.2383C16.1583 75.403 19.5672 75.5739 22.9746 75.7691C27.7358 76.0422 32.4956 76.3656 37.2568 76.6219C43.5133 76.9591 49.7713 77.2306 56.0279 77.5708C59.7061 77.7707 62.7446 79.3572 64.9737 82.6371C65.1631 82.9163 65.5713 83.1101 65.9038 83.1711C70.1417 83.9476 74.3852 84.6921 78.6273 85.4441C83.1234 86.242 87.618 87.0383 92.1141 87.8347C92.5054 87.9048 92.8968 87.9964 93.2924 88.0208C93.5043 88.0345 93.7624 87.9872 93.9321 87.8621C95.1021 86.9941 97.132 87.0597 98.3398 87.8972C98.7326 88.1688 99.326 88.0757 99.8141 88.2115C100.437 88.3854 100.876 88.2359 101.34 87.6989C101.631 87.3648 102.205 87.1695 102.646 87.1787C103.432 87.1939 104.232 87.3389 104.993 87.5601C107.19 88.1993 107.995 90.1016 108.322 92.277C108.871 95.9307 108.579 99.473 106.793 102.741C106.761 102.799 106.76 102.877 106.723 103.031L106.726 103.034ZM48.2016 80.5197C48.0487 80.4892 47.9827 80.4678 47.9154 80.4648C39.6794 80.0132 31.4435 79.5738 23.2089 79.0979C22.537 79.0597 22.0376 79.3176 21.541 79.7157C20.162 80.8217 19.1267 82.2664 18.2584 83.8393C17.7183 84.8187 17.3353 85.9018 16.805 87.1131C20.4496 87.3526 23.8458 87.583 27.2434 87.7981C30.6565 88.0147 34.0696 88.2161 37.4966 88.4235C36.7391 92.0253 37.0856 94.6172 38.4211 95.6958C38.5067 89.6958 40.061 84.5441 45.4562 81.4015C44.5767 82.7195 43.7462 83.8377 43.0448 85.046C42.3252 86.2832 41.945 87.6806 41.8664 89.1527C41.7907 90.5883 41.9324 91.9811 42.6408 93.4319C43.042 88.9025 44.5683 84.2603 48.2002 80.5182L48.2016 80.5197ZM62.5552 84.6798C61.3053 82.657 59.7075 81.287 57.6482 80.596C55.5257 79.8835 53.3822 79.8317 51.5417 81.3084C48.2408 83.9583 47.1354 87.7767 47.1509 92.068C47.1509 92.4021 47.4931 92.9574 47.7442 93.0078C48.0094 93.0596 48.499 92.7042 48.6336 92.3945C48.896 91.7889 48.9815 91.0917 49.1372 90.4311C49.3926 89.345 49.6451 88.2588 49.899 87.1711C49.9649 87.1833 50.0308 87.1939 50.0968 87.2061C50.2258 88.5532 50.6551 89.7431 51.9387 90.1413C53.3513 90.5791 54.3936 89.8362 55.2129 88.39C55.2409 88.9758 55.2283 89.377 55.2844 89.766C55.4303 90.7881 55.955 91.4761 56.885 91.7614C57.6678 92.0024 58.5852 91.6546 59.0945 90.8491C59.354 90.4403 59.5967 89.9659 59.6808 89.4868C60.0302 87.496 60.8859 85.8774 62.5538 84.6814L62.5552 84.6798ZM73.1704 89.0963C73.2616 90.8751 73.8395 91.5051 75.2816 91.4792C75.4458 91.4761 75.6099 91.4944 75.7726 91.4792C77.8768 91.3053 79.1001 91.6638 79.6963 94.187C80.033 95.6104 81.6869 95.8712 82.3673 94.6416C83.1374 93.2503 84.2008 92.8995 85.5587 92.991C87.2603 93.1039 88.9647 93.1802 90.6692 93.2412C90.8824 93.2488 91.2317 93.1313 91.2948 92.9681C91.5445 92.332 91.7044 91.6531 91.9107 90.9483C91.6806 90.8934 91.4814 90.8339 91.278 90.7973C86.4144 89.9445 81.5522 89.0856 76.6858 88.2466C74.8874 87.9369 73.0862 87.6318 71.2794 87.4014C69.4122 87.1619 67.6012 88.4723 67.3529 90.2466C67.2925 90.6783 67.4427 91.3449 67.7232 91.5783C68.0417 91.8407 68.6336 91.8407 69.0741 91.7568C69.4347 91.6882 69.7419 91.316 70.08 91.0948C71.1082 90.4235 72.1393 89.7599 73.1704 89.0932V89.0963ZM90.9189 98.2175C90.6467 98.2175 90.4167 98.2129 90.188 98.2175C81.7781 98.4402 73.3696 98.6614 64.9597 98.8872C63.3226 98.9315 61.8945 99.5051 60.5702 100.614C57.4714 103.208 54.0485 103.551 50.4517 101.992C49.5805 101.613 48.7641 101.092 47.799 100.568C48.0725 101.018 48.2605 101.391 48.5032 101.713C50.5022 104.372 53.1563 105.125 56.1668 104.753C58.4632 104.469 60.4412 103.366 62.2466 101.845C62.9214 101.276 63.6424 100.875 64.5402 100.851C71.198 100.671 77.8544 100.449 84.5122 100.277C86.7034 100.221 88.896 100.268 91.1756 100.268C91.0774 99.4898 91.0058 98.9208 90.9174 98.2175H90.9189ZM47.2519 105.81L47.2799 105.674C46.6458 105.176 46.0356 104.634 45.3693 104.192C44.9498 103.914 44.4574 103.65 43.9805 103.607C39.8618 103.237 35.7403 102.895 31.616 102.59C23.9272 102.021 16.2383 101.482 8.54804 100.933C8.30535 100.916 8.05986 100.931 7.65445 100.931C8.37409 101.845 8.79634 102.913 9.91299 103.003C15.9213 103.49 21.9295 103.952 27.9406 104.405C33.2756 104.808 38.6105 105.186 43.9468 105.574C45.048 105.655 46.1492 105.731 47.2505 105.81H47.2519ZM95.8133 92.2343C95.9578 92.9727 96.0209 93.8041 96.3057 94.5333C96.4502 94.904 96.9959 95.2991 97.3564 95.2946C97.63 95.2915 98.0115 94.7164 98.1434 94.3167C98.5516 93.081 98.8616 91.8087 99.2278 90.4876C98.3973 90.3533 97.4785 90.2038 96.4656 90.0391C96.7574 89.6546 96.9678 89.38 97.1768 89.1054C94.7598 90.181 94.1159 92.4815 93.8045 94.9452C93.4243 97.9597 94.2365 100.809 95.6464 101.801C94.5241 98.5348 94.5718 95.3098 95.8147 92.2328L95.8133 92.2343ZM5.51234 90.364C5.58248 90.3533 5.65402 90.3427 5.72416 90.332C6.86045 84.5181 9.25787 79.6959 14.5311 77.133C12.0046 77.1284 9.94946 78.1856 8.34323 80.2146C6.45363 82.6036 5.22195 85.3312 5.12235 88.5364C5.10412 89.1405 5.37486 89.7538 5.51094 90.3625L5.51234 90.364ZM67.4342 85.5631C65.2388 86.2359 63.85 87.9125 63.2594 90.3701C62.7614 92.4464 63.1416 94.4143 64.052 96.274C64.0436 94.3198 64.1067 92.3625 64.8615 90.5913C65.6064 88.84 66.5827 87.2046 67.4342 85.5631ZM102.226 90.6035C102.32 90.663 102.414 90.7225 102.508 90.782C102.199 90.9559 101.896 91.2595 101.58 91.2763C100.987 91.3083 100.611 91.4761 100.475 92.1611C100.343 92.8262 100.767 92.9468 101.151 93.2C101.366 93.3419 101.467 93.6867 101.62 93.9399C101.406 94.0833 101.207 94.3091 100.977 94.3564C100.134 94.5349 99.7749 95.0993 100.025 96.007C100.068 96.1672 100.232 96.3472 100.378 96.4067C100.879 96.6111 101.398 96.7652 101.941 96.9498C102.134 95.6866 102.237 94.2938 102.583 92.9757C102.935 91.6348 103.529 90.3671 104.039 89.0048C103.658 88.9575 103.247 88.898 102.834 88.8583C102.3 88.8064 101.857 89.0368 101.81 89.6272C101.787 89.9369 102.077 90.2771 102.224 90.602L102.226 90.6035ZM17.8754 78.5899C17.7323 78.6158 17.6131 78.6128 17.5135 78.6616C15.116 79.8118 13.4467 81.734 12.4956 84.3747C12.3623 84.7439 12.389 85.2351 12.4872 85.6272C12.5503 85.8774 12.8785 86.0498 13.089 86.2573C13.2391 86.0559 13.4256 85.8759 13.5351 85.6516C14.0976 84.4907 14.5437 83.2474 15.2142 82.1688C15.99 80.9209 16.9565 79.8118 17.8782 78.5929L17.8754 78.5899ZM104.838 102.512V92.8827C103.365 95.3464 103.32 101.259 104.838 102.512Z" fill="#030323"/>
<path d="M43.2664 74.7806C43.2664 74.4114 43.2664 74.1368 43.2664 73.8622C43.2664 66.8463 43.3169 59.8288 43.2439 52.8128C43.1962 48.2209 44.3858 44.134 47.075 40.613C47.876 39.565 48.1496 38.4284 48.2843 37.147C49.1849 28.6146 50.1121 20.0868 51.017 11.5545C51.0492 11.2509 51.0029 10.868 50.8528 10.6239C50.4951 10.0396 50.4811 9.45228 50.6073 8.80545C50.8192 7.71469 51.0043 6.61782 51.1993 5.53164C50.1921 5.05872 50.2103 5.01905 50.4292 3.88252C50.8276 1.80473 51.9877 0.675832 53.8927 0.349366C56.2663 -0.0564282 58.6371 -0.231866 60.9784 0.514125C62.6099 1.03434 63.8135 2.83295 63.7209 4.65903C63.7041 4.98092 63.2019 5.27382 62.9241 5.58045C62.8526 5.54994 62.7796 5.51943 62.7081 5.4874C62.8778 6.39509 63.0195 7.31042 63.2271 8.20896C63.46 9.21735 63.6059 10.151 62.9928 11.1228C62.7642 11.4858 62.8834 12.1555 62.9367 12.6742C63.3253 16.4622 63.7433 20.247 64.1431 24.0349C64.6313 28.6543 65.1167 33.2752 65.5852 37.8976C65.6568 38.6039 65.8742 39.1927 66.2895 39.7496C67.733 41.6946 69.1077 43.7175 69.7236 46.1599C70.1079 47.69 70.4166 49.2979 70.4264 50.8738C70.4923 60.9668 70.4671 71.0598 70.4699 81.1528C70.4699 81.3526 70.4474 81.5525 70.432 81.8195C69.2073 81.5998 68.0121 81.4106 66.8295 81.1528C66.5911 81.1009 66.3694 80.8233 66.1927 80.599C63.6199 77.3161 60.3106 75.6502 56.394 75.4183C52.2865 75.1742 48.1748 75.0201 44.0646 74.8264C43.8331 74.8157 43.6031 74.8004 43.265 74.7821L43.2664 74.7806ZM60.204 41.4582C60.2419 41.539 60.2798 41.6199 60.3177 41.7007C60.0862 41.9402 59.8365 42.163 59.6247 42.4223C58.6637 43.597 57.6228 44.7122 56.7854 45.9845C55.8328 47.4291 56.2663 48.9669 57.7673 49.687C58.5206 50.0485 59.3806 50.1477 60.1928 50.3597C60.4088 50.4162 60.6291 50.4513 60.8479 50.4955C59.1056 50.9272 57.3423 51.0889 55.9857 52.7838C58.8124 52.5107 61.4119 52.7808 63.7447 54.5138C63.7447 53.2415 63.7476 52.0744 63.7447 50.9089C63.7405 49.1347 63.2383 47.6137 61.8551 46.5443C61.4834 46.256 61.4147 45.8746 61.6952 45.4932C62.1399 44.8876 62.6239 44.314 63.1387 43.6656C63.3702 43.9402 63.5287 44.1157 63.6746 44.3048C65.3243 46.462 66.1169 48.941 66.1127 51.7495C66.1029 59.5023 66.1183 67.2566 66.1225 75.0094C66.1225 76.1521 66.4971 76.7242 67.5253 77.1513C67.5338 77.075 67.5492 76.9987 67.5492 76.924C67.5534 68.3062 67.5646 59.6884 67.5562 51.0706C67.552 46.7411 65.9009 43.2812 62.8301 40.5657C62.5636 40.3293 62.3503 39.8762 62.3153 39.5009C62.1329 37.5543 62.0263 35.6001 61.872 33.6504C61.3754 27.3713 60.8634 21.0952 60.3766 14.8146C60.3387 14.331 60.1521 14.1571 59.7481 14.0899C58.2808 13.8443 56.9705 14.7718 56.7783 16.5888C56.5525 18.7215 56.5595 20.8954 56.6128 23.0479C56.6423 24.2546 57.411 24.8969 58.501 25.0067C58.5992 25.0159 58.696 25.051 58.8208 25.0799C58.0998 25.9785 57.4082 26.8038 56.7573 27.6642C56.4487 28.0715 56.1639 28.5216 55.9647 28.9991C55.7304 29.5589 55.8413 30.1188 56.328 30.488C56.819 30.8602 57.2876 30.6634 57.6467 30.2424C57.9932 29.8366 58.2737 29.3652 58.574 28.9136C58.7086 28.7107 58.8152 28.488 58.9345 28.2744C59.0229 28.2988 59.1126 28.3232 59.201 28.3477C59.201 31.5681 59.2094 34.7885 59.1786 38.0089C59.1772 38.1752 58.8629 38.4498 58.6651 38.4849C57.6874 38.6603 56.8962 39.1317 56.3673 40.0516C56.025 40.6466 55.8988 41.2904 56.3266 41.9021C56.7657 42.5291 57.3311 42.5108 57.9651 42.2499C58.6988 41.9494 59.4563 41.7175 60.204 41.4566V41.4582ZM59.9207 65.9157C59.9487 65.905 59.9782 65.8943 60.0062 65.8836C60.0062 67.9386 59.9936 69.995 60.0231 72.0499C60.0273 72.3092 60.2026 72.7181 60.392 72.7959C61.5353 73.2703 62.7053 73.6685 63.8808 74.0956C63.8948 73.94 63.9397 73.6654 63.9383 73.3908C63.9229 69.0446 63.8892 64.6998 63.8948 60.3535C63.8948 59.7281 63.6816 59.304 63.3029 58.8921C61.8608 57.3315 60.0932 56.5977 58.1012 56.3704C54.8158 55.9951 51.8657 57.603 50.4572 60.6175C53.9909 58.4314 57.5429 57.5969 61.2113 60.0271C61.0569 60.1247 60.8942 60.1339 60.7441 60.0881C59.5096 59.7128 58.2836 59.8516 57.0729 60.1888C54.9827 60.7715 53.7244 62.3108 53.6739 64.4588C53.6192 66.8463 53.6571 69.2368 53.6585 71.6258C53.6585 71.7173 53.7048 71.8089 53.7553 71.998C54.7597 71.998 55.7655 72.0606 56.7601 71.9675C57.1571 71.9309 57.6102 71.6319 57.8908 71.3054C58.2808 70.8523 58.6287 70.2986 58.8251 69.7189C59.2473 68.474 59.5629 67.1849 59.9207 65.9142V65.9157ZM47.155 56.5946C47.2083 55.6961 47.2448 54.7945 47.3163 53.8974C47.5702 50.677 48.1328 47.5542 49.8666 44.8296C50.4895 43.8502 51.226 42.9517 51.7885 41.9357C52.7649 40.1721 52.9585 38.1722 53.1268 36.1584C53.4116 32.7443 53.7847 29.3393 54.1214 25.9312C54.1719 25.4232 54.1901 24.9121 53.5813 24.816C53.0104 24.726 52.7214 25.0967 52.6204 25.6719C52.5853 25.8717 52.553 26.0715 52.5334 26.2744C52.1252 30.4651 51.6707 34.6512 51.3452 38.8495C51.261 39.9342 50.8669 40.6313 50.2145 41.3804C47.5225 44.4696 45.9163 48.0623 46.2095 52.4421C46.3063 53.873 46.5125 55.2857 47.1564 56.5977L47.155 56.5946ZM62.0782 4.18763C61.8089 3.42791 61.7892 2.57361 60.897 2.2685C59.2529 1.70557 57.5723 1.84745 55.896 1.91C55.5032 1.92525 55.4372 2.17544 55.6617 2.53547C55.7964 2.74905 55.9647 2.99161 55.9773 3.22959C56.0068 3.74522 56.091 4.11288 56.6605 4.16322C57.2525 4.21509 57.3984 3.81998 57.5513 3.32418C57.6313 3.06636 57.8669 2.86346 58.0325 2.63616C58.1994 2.86804 58.4575 3.07704 58.515 3.3379C58.6357 3.8871 58.7998 4.3051 59.396 4.30968C60.0132 4.31425 60.075 3.85049 60.1353 3.33485C60.1577 3.15026 60.3443 2.98856 60.4565 2.81769C60.6277 2.95194 60.8339 3.05568 60.9615 3.22807C61.071 3.37604 61.1102 3.59877 61.1453 3.79709C61.2547 4.41494 61.5928 4.39511 62.0782 4.18916V4.18763ZM55.6729 7.09684C57.2329 7.19448 58.7788 7.28906 60.3247 7.38517C60.4088 6.13117 60.3794 6.08998 59.2473 5.852C59.0874 5.81844 58.9289 5.77267 58.7689 5.73911C57.4559 5.45994 56.2831 5.98777 55.6743 7.09532L55.6729 7.09684ZM56.1892 11.1792C58.2681 11.1121 60.27 11.3943 62.2998 12.4012C62.0067 10.9687 61.0177 10.7749 60.2068 10.4912C58.8012 9.99995 57.3787 9.88554 56.1892 11.1792Z" fill="#030323"/>
<path d="M73.9769 40.4467C73.0412 41.449 72.1056 42.4528 71.1629 43.4627C70.6424 42.5428 70.0981 41.5786 69.5398 40.5916C69.5412 40.5809 69.5342 40.5138 69.5608 40.4894C71.2456 38.9349 71.0548 36.703 71.2891 34.6572C72.0957 27.623 72.8448 20.5811 73.6108 13.5407C73.7132 12.5964 73.9615 11.6429 73.3344 10.7566C73.2026 10.5705 73.2839 10.1647 73.3316 9.87328C73.5084 8.77489 73.7118 7.6826 73.9026 6.59794C72.8476 6.16469 72.8967 6.14486 73.0861 4.98544C73.4242 2.91681 74.5731 1.86113 76.415 1.53009C78.6539 1.12887 80.8844 1.11056 83.0953 1.70095C84.86 2.17234 85.9977 3.75433 85.9009 5.70855C85.8841 6.0457 85.365 6.35538 85.0788 6.67727C85.0087 6.64066 84.9386 6.60252 84.8684 6.56591C85.0802 7.54378 85.271 8.52623 85.5095 9.49647C85.6554 10.0914 85.6316 10.5979 85.337 11.1624C85.1251 11.5682 85.0297 12.128 85.076 12.5964C85.5404 17.4217 86.0468 22.2439 86.535 27.0661C86.8913 30.5764 87.2616 34.0867 87.5717 37.6031C87.646 38.4375 87.8971 39.0966 88.4119 39.6992C90.6312 42.2987 91.8951 45.3833 92.2753 48.8967C92.3483 49.5755 92.3539 50.2666 92.3553 50.9516C92.3679 62.2391 92.3763 73.525 92.3847 84.8125C92.3847 85.0383 92.3847 85.2626 92.3847 85.5936C90.9525 85.3221 89.5875 85.0429 88.2156 84.8079C83.5315 84.007 78.8475 83.2107 74.1593 82.4388C72.605 82.1825 72.6022 82.2191 72.5994 80.5135C72.5881 70.3961 72.5951 60.2787 72.539 50.1613C72.532 48.8051 72.1897 47.4535 72.0438 46.0942C72.0102 45.7861 72.0817 45.42 72.2178 45.1454C72.7985 43.9661 73.441 42.8235 74.0162 41.6412C74.1593 41.3468 74.1382 40.9577 74.193 40.613C74.1214 40.558 74.0499 40.5016 73.9783 40.4467H73.9769ZM89.1905 81.7889C89.2087 81.3602 89.2298 81.0887 89.2298 80.8186C89.241 74.3122 89.2677 67.8058 89.2536 61.2993C89.2452 57.31 89.2607 53.3177 89.1063 49.3345C88.9759 45.9295 87.6151 43.0645 85.2177 40.8525C84.6468 40.3246 84.4027 39.7831 84.3508 38.9928C83.8317 31.1622 83.286 23.3331 82.7403 15.5025C82.666 14.4331 82.3461 14.2058 81.3754 14.5048C79.9333 14.9472 79.1884 16.1021 79.0649 17.62C78.9191 19.4125 78.9106 21.2264 78.9625 23.0265C79.0018 24.4239 79.6541 25.0585 80.9251 25.2477C80.977 25.2553 81.0233 25.3148 81.0457 25.3316C80.4004 26.131 79.7495 26.8922 79.1519 27.7023C78.9106 28.0288 78.6806 28.4452 78.6441 28.8434C78.6118 29.1882 78.7718 29.7069 79.0116 29.8823C79.2403 30.0501 79.7692 30.0089 80.0119 29.8228C80.3948 29.5299 80.6572 29.0448 80.9531 28.6253C81.0934 28.4254 81.1916 28.1905 81.3095 27.9723L81.5465 28.041C81.5465 31.0615 81.555 34.0821 81.5269 37.1012C81.5255 37.2781 81.259 37.5344 81.0668 37.6122C80.0259 38.0317 79.1309 38.6389 78.6062 39.7434C78.2331 40.5306 78.285 41.3254 78.7283 41.8075C79.2613 42.3872 79.866 42.3719 80.5393 42.0851C81.158 41.8212 81.8103 41.6549 82.4486 41.4459C82.4808 41.51 82.5131 41.5725 82.5453 41.6366C82.3602 41.8487 82.1694 42.0546 81.9912 42.2728C81.0794 43.394 80.0764 44.4436 79.2852 45.6579C78.0269 47.5877 78.5291 49.2384 80.5505 50.1461C81.179 50.4283 81.8636 50.5671 82.5776 50.7883C81.7275 51.034 80.9054 51.2063 80.1269 51.5099C78.9415 51.9706 78.4323 52.4268 78.1447 53.0751C80.688 52.7227 83.1093 53.0766 85.4464 54.7029C85.4464 53.339 85.4211 52.1018 85.452 50.8677C85.4941 49.2079 85.1476 47.7586 83.8724 46.674C83.6915 46.5199 83.6073 45.9188 83.7349 45.7083C84.1516 45.0203 84.686 44.4161 85.2177 43.7251C86.7805 45.7098 87.5731 47.8852 87.5759 50.3658C87.5871 60.2528 87.5829 70.1398 87.5632 80.0269C87.5632 80.6173 87.7288 80.9926 88.1959 81.2412C88.4863 81.3968 88.7725 81.5585 89.1891 81.7874L89.1905 81.7889ZM83.2762 60.4496C82.4991 60.4496 81.7331 60.3825 80.9812 60.4618C78.8728 60.6845 76.704 62.059 76.7685 65.4168C76.8555 69.9141 76.819 74.4129 76.8359 78.9117C76.8359 79.1787 76.8359 79.4441 76.8359 79.6852H78.7381C78.7381 78.3518 78.7297 77.0872 78.7465 75.824C78.7493 75.5906 78.7886 75.2718 78.9289 75.1421C80.2686 73.9034 80.695 72.2024 81.0008 70.4358C81.1089 69.8088 81.193 69.1772 81.2884 68.5472C81.4315 68.6814 81.4455 68.7989 81.4469 68.9179C81.4792 72.1963 81.5143 75.4731 81.5395 78.7515C81.5493 80.0345 81.5479 80.004 82.7235 80.2954C83.6171 80.5166 84.4911 80.8308 85.3987 81.1115C85.4113 80.9422 85.4267 80.8171 85.4267 80.692C85.4267 73.8301 85.4197 66.9698 85.4422 60.1079C85.4436 59.5099 85.2556 59.1071 84.8782 58.7227C82.9844 56.7898 79.0509 56.1521 76.5553 57.3878C75.5214 57.8989 75.2619 58.4588 75.4274 59.8119C79.6022 58.7196 81.7822 58.892 83.2776 60.4511L83.2762 60.4496ZM79.9908 2.86036C79.988 2.90155 79.9852 2.94274 79.9824 2.98393C79.4928 2.98393 79.0032 2.9641 78.515 2.99461C78.3509 3.00529 78.1194 3.09987 78.0549 3.23259C78.003 3.33938 78.1559 3.56516 78.2219 3.73602C78.2976 3.93282 78.4098 4.11894 78.4477 4.32336C78.5221 4.73831 78.4701 5.18376 79.0635 5.228C79.6303 5.27072 79.8505 5.00222 79.9838 4.45455C80.0483 4.18758 80.284 3.96791 80.4411 3.7284C80.5996 3.96791 80.8732 4.19674 80.897 4.44998C80.9602 5.14868 81.3263 5.34852 81.879 5.34089C82.4696 5.33327 82.5005 4.88933 82.5257 4.39506C82.5341 4.21962 82.7305 4.05639 82.8413 3.88705C83.0069 4.0274 83.2201 4.13572 83.3253 4.31726C83.4432 4.5232 83.4095 4.84357 83.5442 5.02511C83.669 5.19597 83.9215 5.27225 84.1305 5.34089C84.1698 5.3531 84.3339 5.13495 84.3353 5.02053C84.3536 4.25623 83.7714 3.41108 83.0391 3.27378C82.0319 3.08462 81.0093 2.99308 79.9922 2.86036H79.9908ZM75.1048 28.2378C75.0866 28.6131 75.0753 29.1409 75.6827 29.2172C76.2832 29.2934 76.5216 28.8297 76.5735 28.282C76.7026 26.9441 76.826 25.6047 76.8723 24.2622C76.8822 23.9754 76.5988 23.4903 76.3743 23.4308C76.1429 23.3698 75.7936 23.6794 75.5509 23.8991C75.4344 24.0044 75.4218 24.2729 75.405 24.4712C75.3012 25.684 75.21 26.8983 75.1048 28.2362V28.2378ZM77.3549 8.21044H82.6099C82.6898 7.13493 82.6183 7.03577 81.5353 6.86491C81.374 6.83898 81.2183 6.77948 81.0584 6.74897C79.6149 6.48505 78.4154 6.96102 77.3563 8.20892L77.3549 8.21044ZM79.201 11.6078C80.068 11.678 80.9223 11.6902 81.7584 11.829C82.6141 11.9709 83.453 12.2333 84.4223 12.4743C84.0744 11.3286 83.2103 11.2585 82.5047 11.0434C80.9209 10.5628 79.8127 10.784 79.201 11.6078Z" fill="#030323"/>
<path d="M41.4876 6.8192C41.6615 7.71164 41.9 8.77037 42.0613 9.84283C42.116 10.2105 42.0768 10.6727 41.9126 10.987C41.6138 11.556 41.5802 12.093 41.6461 12.7276C42.3882 19.9221 43.1022 27.1211 43.8261 34.3186C43.9074 35.1272 44.0056 35.9327 44.0758 36.7412C44.2217 38.4452 44.2161 38.4452 45.0956 39.8457C44.6579 40.4788 44.181 41.1012 43.7714 41.7724C41.9323 44.7854 41.1369 48.1202 41.1495 51.7266C41.1747 59.098 41.1579 66.4679 41.1579 73.8393C41.1579 74.085 41.1579 74.3321 41.1579 74.6555C35.1833 74.3367 29.29 74.0209 23.3617 73.7051C23.3421 73.5083 23.3154 73.3634 23.3154 73.2184C23.3224 65.9752 23.3491 58.7304 23.3323 51.4871C23.3224 46.9669 24.6916 43.0264 27.4018 39.6275C27.8451 39.0722 28.1075 38.5047 28.1832 37.7526C28.8818 30.8084 29.6155 23.8671 30.3351 16.9244C30.4951 15.3851 30.6494 13.8428 30.7742 12.3005C30.7995 11.9908 30.7714 11.5957 30.6143 11.3668C30.1878 10.7475 30.1935 10.1235 30.3534 9.4233C30.5596 8.5156 30.7097 7.59418 30.8851 6.67427C30.836 6.63003 30.8065 6.58274 30.7658 6.56749C29.7375 6.19831 29.7866 6.20746 29.9746 5.08008C30.3071 3.07094 31.3592 1.99391 33.2151 1.64914C35.4611 1.23114 37.6817 1.193 39.8827 1.83525C41.5268 2.31427 42.6463 4.02898 42.4892 5.85201C42.4625 6.16017 41.9267 6.41493 41.489 6.82225L41.4876 6.8192ZM35.1833 49.1133C36.5314 48.4589 37.5597 47.391 38.2414 46.0165C39.0579 44.3674 39.7312 42.6359 40.4551 40.9334C40.9783 39.7007 41.1074 38.4132 40.9152 37.0661C40.8086 36.3156 40.8044 35.5482 40.7483 34.7885C40.2783 28.2821 39.7972 21.7756 39.3525 15.2677C39.3034 14.5415 38.9737 14.4362 38.4505 14.4576C37.244 14.5095 36.1428 15.4629 35.9871 17.0388C35.7823 19.1212 35.8005 21.2356 35.8314 23.3347C35.8454 24.2562 36.4585 24.8847 37.2216 25.2905C38.1475 25.7817 38.1573 25.8198 37.5541 26.7763C37.3689 27.0693 37.1458 27.3316 36.9579 27.623C36.4613 28.3904 35.945 29.1455 35.4947 29.9449C35.1777 30.5078 35.2492 31.1135 35.7655 31.4994C36.3154 31.9113 36.7474 31.533 37.0743 31.0616C37.3871 30.61 37.6481 30.1142 37.944 29.6169C38.0044 29.7084 38.0493 29.7451 38.0507 29.7832C38.1236 32.3476 38.2064 34.9105 38.24 37.475C38.2442 37.7526 38.0058 38.1035 37.7883 38.2988C37.3226 38.7168 36.7573 39.0051 36.307 39.4368C35.5775 40.1371 34.9869 40.97 34.9462 42.0913C34.8985 43.4078 35.9057 44.1218 36.9705 43.5116C37.4026 43.2629 37.7687 42.8769 38.2302 42.4986C37.5302 44.9227 36.6212 47.1484 35.1833 49.1149V49.1133ZM26.9487 52.4726C26.9978 52.3536 27.0582 52.2682 27.0652 52.1782C27.3247 48.886 28.555 46.0302 30.3001 43.3727C30.9987 42.3094 31.5654 41.1363 31.7057 39.748C27.8676 42.1675 25.5824 48.9272 26.9487 52.4726ZM30.0041 57.4581C32.3636 55.8029 34.8929 55.0691 37.5975 54.9775C37.7505 54.973 37.9651 54.7762 38.031 54.6129C38.1881 54.2254 38.2737 53.8029 38.3887 53.391C35.3306 52.5458 31.2877 54.2132 30.0027 57.4581H30.0041ZM29.8442 63.2063C29.948 63.1483 30.0013 63.1377 30.0279 63.1026C31.4588 61.156 33.2614 59.844 35.4891 59.1987C35.8595 59.0919 36.2116 58.7502 36.4725 58.4222C36.6408 58.2117 36.7755 57.6976 36.6661 57.5557C36.5033 57.3436 36.1162 57.2918 35.816 57.2628C35.5705 57.2399 35.3095 57.3345 35.0627 57.4062C32.3145 58.2163 30.6255 60.169 29.8442 63.2063ZM41.1944 5.18687C40.8535 4.60106 40.6515 3.78185 40.2166 3.59268C38.5851 2.8833 36.8358 2.9428 35.1061 3.12586C35.0248 3.13502 34.8845 3.5164 34.9294 3.67048C35.0248 4 35.2759 4.27917 35.3657 4.60869C35.4807 5.02974 35.6981 5.1411 36.0727 5.17009C36.6997 5.22043 36.6703 4.69259 36.8358 4.29595C36.9144 4.10679 37.1346 3.84134 37.2595 3.85965C37.4292 3.88406 37.5849 4.13577 37.714 4.31731C37.7771 4.40732 37.7785 4.55987 37.7869 4.68497C37.8276 5.28756 38.1587 5.40502 38.6525 5.38519C39.2388 5.36078 39.1098 4.88024 39.215 4.52021C39.2697 4.32951 39.4212 4.17238 39.5292 4.00152C39.699 4.13882 39.8926 4.25476 40.0314 4.42257C40.117 4.52478 40.131 4.70327 40.1591 4.85125C40.2559 5.36231 40.507 5.53317 41.193 5.1884L41.1944 5.18687ZM33.7454 26.0639H33.7426C33.751 25.9876 33.7664 25.9114 33.765 25.8366C33.7594 25.3454 33.9179 24.7077 33.2474 24.6314C32.6582 24.5658 32.452 25.115 32.3973 25.6352C32.2346 27.1745 32.0929 28.7168 31.9989 30.2622C31.9835 30.5093 32.2865 31.0082 32.3889 30.9914C32.6891 30.9426 33.0187 30.7504 33.2264 30.5048C33.3751 30.3293 33.3652 29.9785 33.3933 29.7023C33.5167 28.4895 33.629 27.2767 33.744 26.0639H33.7454ZM39.1968 6.99922C37.5372 6.69106 35.9703 6.43629 34.9588 8.10218C36.3645 8.17236 37.808 8.24406 39.2964 8.31881C39.2655 7.91454 39.2318 7.46908 39.1968 6.99769V6.99922ZM35.8188 11.553C37.5232 11.8291 39.1813 12.0976 40.89 12.3752C40.7118 11.4187 39.9248 11.3409 39.3076 11.1411C38.1138 10.7551 36.906 10.6025 35.8188 11.553Z" fill="#030323"/>
<path d="M51.1208 115C50.0574 114.875 48.9941 114.759 47.9322 114.617C47.6825 114.584 47.4257 114.495 47.2055 114.365C47.0372 114.266 46.7903 114.031 46.8141 113.908C46.852 113.706 47.0498 113.464 47.2336 113.388C47.6221 113.229 48.0388 113.134 48.4512 113.07C50.4236 112.768 52.4001 112.751 54.3725 113.079C54.5787 113.113 54.8032 113.131 54.9813 113.236C55.2689 113.406 55.5242 113.641 55.7936 113.847C55.534 114.062 55.2984 114.408 55.0122 114.468C54.0779 114.664 53.1268 114.77 52.1785 114.883C51.8334 114.924 51.4799 114.889 51.1306 114.889C51.1278 114.925 51.125 114.962 51.1222 114.997L51.1208 115Z" fill="#030323"/>
<path d="M103.439 109.742C102.62 109.629 101.782 109.549 100.962 109.378C100.716 109.327 100.515 109.018 100.294 108.828C100.528 108.646 100.743 108.359 100.999 108.301C102.571 107.946 104.154 107.937 105.726 108.294C106.006 108.358 106.242 108.654 106.497 108.843C106.249 109.04 106.022 109.349 105.748 109.409C104.997 109.574 104.227 109.635 103.439 109.74V109.742Z" fill="#030323"/>
<path d="M111.237 109.388C110.818 109.128 110.492 108.927 110.166 108.725C110.533 108.542 110.895 108.228 111.268 108.213C111.612 108.199 111.968 108.504 112.317 108.669C111.982 108.892 111.646 109.114 111.236 109.388H111.237Z" fill="#030323"/>
<path d="M56.4585 87.8743C56.2467 86.4037 55.283 85.6287 54.1902 85.0277C53.7301 84.7744 53.1745 84.7363 52.6807 84.5441C52.3763 84.4251 51.9906 84.2649 51.8615 83.9979C51.7521 83.7721 51.8727 83.2962 52.0411 83.0521C52.9361 81.7447 53.3822 81.673 54.6756 82.4617C55.5691 83.0063 56.4824 83.5097 57.3788 84.0483C58.1377 84.5059 58.1812 84.9254 57.6846 85.6958C57.2511 86.3686 56.892 87.0993 56.4599 87.8758L56.4585 87.8743Z" fill="#030323"/>
</g>
<defs>
<clipPath id="clip0_3665_1032">
<rect width="113" height="115" fill="white" transform="translate(0.5)"/>
</clipPath>
</defs>
</svg>
