<svg width="76" height="83" viewBox="0 0 76 83" fill="none" xmlns="http://www.w3.org/2000/svg">
<g opacity="0.9" clip-path="url(#clip0_1500_276)">
<path d="M27.5408 12.0721C27.5408 10.9328 27.563 9.86923 27.5321 8.80772C27.5147 8.22021 27.7574 7.87233 28.1886 7.58225C29.3595 6.79505 30.66 6.50392 31.9992 6.51338C32.9159 6.51969 33.8316 6.73724 34.7472 6.86021C34.8691 6.87703 34.9899 6.89384 35.1466 6.91591C35.2239 5.91536 35.2984 4.96 35.3699 4.00464C35.4154 3.39401 35.4773 2.78338 35.4956 2.17169C35.5121 1.61046 35.7451 1.22264 36.2179 1.05133C36.8687 0.815903 37.5242 0.545796 38.1982 0.443849C39.7742 0.205272 41.3397 0.305117 42.8433 0.950432C43.4901 1.2279 43.9194 1.60205 43.9455 2.50276C44.0461 5.96581 44.2405 9.42676 44.372 12.8888C44.4 13.6181 44.312 14.3539 44.2782 15.0864C45.3824 15.2041 46.4866 15.3208 47.6411 15.4437C47.5715 14.6744 47.5048 13.8641 47.4255 13.0548C47.2079 10.8446 46.9884 8.6343 46.7612 6.4251C46.7051 5.87858 47.0223 5.5864 47.3655 5.32155C48.1507 4.71302 49.0538 4.41348 49.9878 4.22535C51.3319 3.95524 52.6681 3.93002 53.989 4.40087C54.5478 4.59951 54.8215 4.96315 54.9298 5.62318C55.1947 7.24383 55.5728 8.84135 55.857 10.4578C56.151 12.1278 56.4111 13.8052 56.6422 15.4868C56.8501 17.0034 57.0406 18.5263 57.1595 20.0534C57.2746 21.5217 57.0222 22.9416 56.4034 24.2679C56.3318 24.4224 56.2428 24.5664 56.1452 24.7462C55.9943 24.6169 55.8609 24.5044 55.7575 24.4151C55.9973 23.5249 56.2728 22.6725 56.4527 21.797C56.7311 20.4391 56.53 19.0749 56.3511 17.7255C56.1462 16.1752 55.8851 14.6345 55.6424 13.0496C53.1767 14.1846 50.6714 14.1626 48.0347 13.2703C48.3537 14.3328 47.9844 15.4732 48.7647 16.3476C48.8701 16.4664 48.8894 16.7007 48.9049 16.8857C49.0025 18.0544 49.136 19.2221 49.1669 20.3929C49.2191 22.3803 50.0555 23.9295 51.3328 25.2527C51.7631 25.6984 52.2098 26.1272 52.6778 26.5244C53.1071 26.8891 53.3914 27.3064 53.4185 27.9202C53.4397 28.4068 53.5316 28.8913 53.5403 29.3779C53.5422 29.5061 53.3537 29.6375 53.2522 29.7678C53.1632 29.6575 53.0259 29.5608 52.994 29.4326C52.9273 29.1646 52.8915 28.8808 52.8867 28.6023C52.8712 27.7888 52.527 27.1866 51.9613 26.6779C50.9963 25.8087 50.0768 24.8859 49.3294 23.7036C49.3071 23.8602 49.2704 24.0168 49.2655 24.1744C49.1834 26.8345 49.1708 29.5009 49.0006 32.1536C48.8981 33.7501 48.2783 35.2015 47.3336 36.4596C47.1228 36.7402 46.9672 36.6235 46.8328 36.4554C47.2544 35.501 47.7001 34.6014 48.0501 33.6586C48.2551 33.1069 48.3866 32.491 48.4118 31.8961C48.5133 29.4641 48.5626 27.03 48.6283 24.5969C48.6312 24.496 48.6148 24.3941 48.6051 24.2711C45.9983 25.2895 43.4273 25.1592 40.8282 24.1513C40.8089 24.3678 40.7905 24.5664 40.7866 24.6116C40.6068 24.2774 40.3631 23.8412 40.1378 23.3946C40.0875 23.2958 40.0808 23.1602 40.0846 23.0425C40.1629 20.9436 40.2364 18.8437 40.3438 16.7459C40.3544 16.5294 40.5362 16.2677 40.7083 16.1279C41.3658 15.593 42.1403 15.3491 42.9457 15.2829C43.4224 15.244 43.67 15.098 43.6632 14.5273C43.6439 12.9382 43.6564 11.348 43.6564 9.72419C41.1695 10.6228 38.643 10.6701 36.0516 9.62645C36.5873 13.6612 37.3531 17.6235 37.442 21.6888C37.208 21.7413 37.0108 21.7844 36.8715 21.816C36.683 19.6414 36.4954 17.4732 36.2991 15.2073C33.6498 16.8163 30.9985 16.8447 28.2524 15.7706C28.2427 15.8578 28.2128 15.9703 28.2224 16.0775C28.41 18.1679 28.586 20.2605 28.8055 22.3467C28.8664 22.9279 29.0172 23.5102 29.2058 24.0598C29.3934 24.6064 29.6796 25.1119 29.9436 25.6794C29.8063 25.7709 29.6477 25.8749 29.4485 26.0074C27.8995 23.5858 28.1161 20.7629 27.6993 18.086C27.6413 18.6724 27.591 19.2599 27.5224 19.8443C27.4518 20.4518 27.3706 21.0582 27.2826 21.6625C26.9229 24.1502 26.5622 26.6369 26.188 29.1225C26.1687 29.2497 26.0208 29.3548 25.9337 29.4694C25.8332 29.3064 25.6311 29.1309 25.6475 28.9838C25.7626 27.9475 25.9192 26.9165 26.0701 25.8844C26.2654 24.5486 26.4675 23.2148 26.6908 21.7193C25.2936 22.3183 23.9709 22.4613 22.6249 22.393C21.2751 22.3246 19.9862 22.023 18.7418 21.0971C18.6267 21.8191 18.5204 22.4224 18.4362 23.0299C18.267 24.2553 18.0727 25.4797 17.9557 26.7115C17.742 28.9607 18.1984 31.0753 19.3625 32.9377C19.9756 33.9182 20.0877 34.8725 19.8073 35.9509C19.6816 36.4343 19.6371 36.88 19.2194 37.3046C18.325 38.2116 17.5892 39.3036 16.7886 40.3199C16.7683 40.3451 16.7596 40.3819 16.7461 40.4134C16.1939 41.6946 16.6426 42.5879 17.9015 42.7214C17.2015 43.6495 16.4995 44.5796 15.7753 45.5392C15.7376 45.1587 15.6766 44.7225 15.6554 44.2832C15.5606 42.322 16.134 40.528 16.8563 38.777C17.098 38.1916 17.36 37.6167 17.6298 37.046C17.9286 36.4112 18.3183 35.8794 18.9535 35.5851C19.3925 35.3823 19.5221 34.8284 19.319 34.2777C19.2891 34.1968 19.2639 34.1127 19.2262 34.0359C19.0261 33.6418 18.823 33.2498 18.6112 32.8389C18.5668 32.8788 18.5088 32.9051 18.5068 32.9356C18.4295 34.5226 17.6985 35.8374 17.0468 37.1953C16.0189 39.334 15.1603 41.5485 15.2232 44.0215C15.2502 45.0641 15.4668 46.1014 15.5867 47.1419C15.7076 48.1971 15.6998 49.2366 15.229 50.2161C15.1816 50.3139 15.2609 50.4841 15.2812 50.6208C15.4088 50.5587 15.6283 50.523 15.6486 50.4316C15.812 49.7274 15.9599 49.0159 16.0644 48.2991C16.1185 47.927 16.074 47.5382 16.074 47.0537C16.6494 47.5224 17.2392 47.534 17.9054 47.4036C17.8126 47.5497 17.7168 47.6948 17.6279 47.843C17.391 48.2371 17.1028 48.607 16.9336 49.0327C16.5633 49.9628 17.0564 50.8299 17.9866 50.8162C18.4933 50.8089 18.997 50.5566 19.5027 50.4221C19.6942 50.3717 19.9127 50.2592 20.08 50.3139C21.3989 50.7427 22.6888 50.6302 23.968 50.1383C23.9912 50.1289 24.025 50.1499 24.1382 50.1772C23.9216 50.543 23.7272 50.8888 23.5164 51.223C23.1983 51.7285 22.8821 52.2361 22.5379 52.7206C22.3436 52.995 22.2865 53.2251 22.5157 53.5015C22.5998 53.6024 22.651 53.737 22.7062 53.862C22.9314 54.3676 22.8193 54.9036 22.3397 55.0875C21.7296 55.3219 21.0759 55.5563 20.4407 55.5605C18.5262 55.571 16.6194 55.4144 14.849 54.4979C14.4457 54.2898 14.0512 54.047 13.6838 53.7716C12.8503 53.1474 12.7459 52.6397 13.2216 51.6739C12.8735 51.5561 12.6134 51.7211 12.5535 52.0417C12.4868 52.3938 12.509 52.789 12.5844 53.1421C12.6347 53.3786 12.8252 53.5972 12.9896 53.7843C14.1325 55.0854 14.2417 56.6598 13.9429 58.2983C13.7786 59.2011 13.4537 60.0682 13.2274 60.9594C13.182 61.1371 13.2564 61.3515 13.2758 61.5491C13.4102 61.4145 13.6123 61.3073 13.6683 61.1413C14.2408 59.4218 14.7059 57.6782 14.4767 55.8138C14.4554 55.6403 14.4216 55.469 14.3906 55.2977C14.3636 55.1495 14.3326 55.0034 14.3026 54.8542C15.257 55.1516 16.1601 55.51 17.0922 55.7013C18.0166 55.8905 18.97 55.9104 19.9823 56.0124C19.8789 56.1763 19.8112 56.3277 19.7077 56.4422C18.532 57.7486 17.8841 59.3472 17.4045 61.0761C16.1794 65.4882 14.9002 69.8814 13.6364 74.2809C12.8842 76.9 12.1116 79.5128 11.37 82.135C11.2549 82.5418 11.0954 82.6658 10.6989 82.6626C7.60478 82.6406 4.51063 82.6511 1.41649 82.6511C1.25694 82.6511 1.0974 82.6511 0.839233 82.6511C1.23084 81.6284 1.59923 80.672 1.96376 79.7146C3.41124 75.9184 4.87033 72.1263 6.30137 68.3228C7.49165 65.1592 8.6858 61.9968 9.80549 58.8039C10.4369 57.0035 11.2259 55.2388 11.428 53.2955C11.5169 52.44 11.5305 51.5351 11.3758 50.6964C10.9948 48.6365 11.0915 46.5849 11.253 44.5228C11.3168 43.7031 11.398 42.8843 11.4473 42.0624C11.5334 40.6268 12.1822 39.4497 12.859 38.2736C13.8811 36.5005 14.8925 34.7033 15.3769 32.6612C15.6264 31.6092 15.6708 30.4888 15.7192 29.3947C15.7811 28.0127 16.0547 27.7762 17.2527 28.2607C17.3214 27.3274 17.3262 26.3847 17.4703 25.4671C17.9189 22.5979 18.4092 19.7371 18.9042 16.8763C19.1614 15.3922 19.4882 13.9229 19.7358 12.4379C19.8818 11.5624 20.313 11.1084 21.1088 10.9602C23.2612 10.5576 25.3246 10.7447 27.2459 11.9723C27.2845 11.9975 27.3348 12.0007 27.5446 12.0627L27.5408 12.0721ZM19.056 19.2231C20.4378 18.5894 21.7441 18.3781 23.0852 18.3771C24.4302 18.375 25.7307 18.6115 26.9896 19.3524C27.1936 17.4974 27.389 15.7149 27.5872 13.9072C25.05 14.3707 22.8638 14.3528 20.3333 12.6134C19.9127 14.79 19.495 16.9551 19.056 19.2231ZM47.9631 11.8136C50.4142 10.5356 52.8693 10.6354 55.3726 11.3764C55.04 9.59387 54.719 7.87548 54.3912 6.11926C52.1769 7.51288 49.8873 7.67894 47.4758 7.02837C47.644 8.67844 47.8026 10.2318 47.9641 11.8125L47.9631 11.8136ZM43.3345 2.755C40.8756 3.73979 38.4969 3.6946 36.0777 2.68038C35.9646 4.24532 35.8563 5.73459 35.7422 7.31109C37.0669 6.69626 38.349 6.42825 39.695 6.42825C41.0535 6.42825 42.3366 6.75196 43.6458 7.34262C43.5394 5.77873 43.4389 4.30523 43.3335 2.755H43.3345ZM35.9317 13.1462C35.7199 11.6475 35.513 10.1898 35.3013 8.6879C32.9913 10.0069 30.6194 10.0153 28.1915 9.23127V13.4027C30.75 12.2561 33.2852 12.0206 35.9317 13.1462ZM40.8727 22.559C43.5066 21.6772 46.0679 21.5595 48.6902 22.6767C48.5761 20.9804 48.4649 19.3156 48.3489 17.6014C47.0107 18.1028 45.6966 18.3014 44.3517 18.2079C43.9678 18.1805 43.8169 18.3456 43.728 18.7292C43.5124 19.6604 43.2233 20.5716 42.6383 21.3115C42.4459 21.5543 42.1374 21.6888 41.8821 21.8738C41.857 21.8317 41.8309 21.7897 41.8057 21.7476C42.4517 20.6399 43.0154 19.4964 43.2474 18.1574H42.7736C42.5193 19.8359 41.6046 21.1528 40.8727 22.559ZM19.7551 54.933C20.4058 54.8489 21.0634 54.7974 21.7064 54.6703C22.2478 54.5631 22.3387 54.211 22.0003 53.7254C21.9036 53.5867 21.7943 53.4543 21.6725 53.3428C19.9359 51.759 17.9083 51.2261 15.696 51.4616C15.1323 51.5215 14.5676 51.7243 14.0377 51.9545C13.3783 52.2403 13.3348 52.6755 13.8772 53.1526C14.1112 53.3586 14.3752 53.5394 14.6478 53.6781C16.2616 54.501 17.975 54.8258 19.7541 54.9341L19.7551 54.933ZM31.6105 15.7359C31.9596 15.7359 32.2013 15.7496 32.4421 15.7338C33.5202 15.6613 34.5712 15.4669 35.4956 14.81C35.6822 14.6776 35.8157 14.4537 35.9733 14.2719C35.7876 14.0953 35.6281 13.8515 35.4125 13.7527C33.8161 13.0222 32.151 13.0727 30.4889 13.3659C29.8972 13.47 29.3141 13.7064 28.76 13.966C28.5328 14.0722 28.322 14.3759 28.2505 14.6376C28.2215 14.7448 28.5551 15.0381 28.7668 15.1432C29.7009 15.6077 30.6881 15.8137 31.6115 15.737L31.6105 15.7359ZM23.2351 21.8012C24.1759 21.6152 25.0587 21.466 25.9289 21.2558C26.3147 21.1622 26.7566 20.9773 26.7624 20.4528C26.7682 19.9473 26.3234 19.8285 25.9705 19.6698C24.6516 19.0739 23.265 19.0876 21.8881 19.2252C21.1146 19.302 20.3488 19.5342 19.5946 19.757C19.3799 19.8212 19.2185 20.0986 19.0319 20.2773C19.1788 20.4476 19.3026 20.6567 19.4786 20.7776C19.7309 20.952 20.0094 21.1212 20.2976 21.1885C21.278 21.4187 22.2681 21.6037 23.2341 21.8012H23.2351ZM39.7752 9.62435C41.1038 9.61804 42.2273 9.56339 43.2793 9.04524C43.7976 8.78985 43.8392 8.48191 43.4089 8.09304C43.288 7.98373 43.142 7.89124 42.9941 7.83239C40.8195 6.96006 38.6333 6.9485 36.449 7.77458C36.2537 7.84815 35.9501 8.12141 35.9733 8.23072C36.0274 8.48296 36.2392 8.70472 36.4152 8.91072C36.4954 9.00425 36.6385 9.03789 36.7565 9.08939C37.7911 9.53396 38.8711 9.65482 39.7743 9.6254L39.7752 9.62435ZM20.8603 11.966C21.834 13.2839 26.4259 14.0196 27.3832 13.0107C26.5497 11.7022 21.9007 10.9581 20.8603 11.966ZM28.3617 8.19919C28.3771 8.27171 28.3936 8.34422 28.4091 8.41674C28.4912 8.46299 28.5715 8.51449 28.6556 8.55548C29.8527 9.12197 31.1222 9.10095 32.3638 8.93174C33.1866 8.81928 33.9795 8.43566 34.7811 8.15505C34.8749 8.12246 34.9938 7.95956 34.988 7.86602C34.9822 7.77774 34.8391 7.65897 34.7356 7.62534C34.3537 7.50027 33.9611 7.30689 33.5763 7.3153C32.3734 7.34157 31.1658 7.38887 29.9726 7.54862C29.4185 7.62219 28.8974 7.97427 28.3607 8.20024L28.3617 8.19919ZM47.5792 5.908C47.5879 5.97422 47.5966 6.04043 47.6044 6.1077C47.7494 6.19493 47.8867 6.33261 48.0414 6.36099C48.6728 6.47555 49.3081 6.61533 49.9453 6.63845C51.1626 6.68154 52.3433 6.43035 53.4455 5.85335C53.6486 5.7472 53.784 5.48866 53.9503 5.30053C53.7598 5.19438 53.579 5.03883 53.3769 4.99048C52.0135 4.66047 50.6482 4.77187 49.311 5.13026C48.7115 5.29107 48.1546 5.64315 47.5783 5.90906L47.5792 5.908ZM48.3257 23.404C47.1876 22.3499 42.1152 22.5075 41.2459 23.3935C42.4517 24.4845 47.4294 24.4918 48.3257 23.404ZM42.9931 1.99723C42.1809 0.782271 37.5484 0.840076 36.4558 1.76601C36.8367 2.88848 41.7187 3.07871 42.9931 1.99723ZM55.304 12.4494C55.2972 12.3633 55.2914 12.276 55.2846 12.1898C55.1164 12.1079 54.9549 11.9859 54.7789 11.9513C54.1475 11.8293 53.5132 11.6759 52.8751 11.6486C51.4663 11.5866 50.0458 11.5288 48.7163 12.2003C48.61 12.254 48.521 12.3506 48.4243 12.4274C48.522 12.522 48.608 12.6439 48.7202 12.7048C48.8604 12.7816 49.0219 12.8152 49.1766 12.8572C50.5216 13.2261 51.8888 13.2408 53.2483 13.039C53.9454 12.9361 54.6184 12.6512 55.303 12.4484L55.304 12.4494ZM44.0161 17.4764C44.4648 17.4764 44.869 17.5289 45.2567 17.4659C46.1211 17.325 46.9788 17.1316 47.8364 16.9446C47.9235 16.9256 48.0424 16.8069 48.0521 16.7207C48.0608 16.644 47.9573 16.5053 47.8751 16.4685C46.68 15.9335 45.4298 15.861 44.1312 15.9062C44.0925 16.4411 44.0567 16.9204 44.0161 17.4764ZM40.8572 17.4627V21.1664C41.2836 20.6998 42.0852 18.9215 42.1239 18.2751C42.1316 18.1511 42.061 17.9462 41.974 17.9031C41.6597 17.7454 41.3223 17.6403 40.8572 17.4638V17.4627ZM43.4398 15.902C42.6876 16.0996 41.8754 16.0975 41.2043 16.7249C41.5321 16.9246 41.8589 17.097 42.2041 17.1705C43.6216 17.4732 43.4747 17.4554 43.5104 16.0249C43.5104 16.0102 43.495 15.9955 43.4398 15.9009V15.902Z" fill="#030323"/>
<path d="M74.8368 82.6469C74.1928 82.6469 73.6484 82.6469 73.104 82.6469C70.1395 82.6469 67.1749 82.6395 64.2113 82.6584C63.8796 82.6605 63.721 82.5639 63.6311 82.2202C62.8344 79.1849 62.026 76.1538 61.2254 73.1206C60.4151 70.0517 59.6281 66.9754 58.7946 63.9138C57.8093 60.29 56.8269 56.663 55.7546 53.0696C55.4326 51.9902 54.808 51.0191 54.3351 49.9923C53.7472 48.7143 53.1507 47.4394 52.6043 46.1414C52.3955 45.6453 52.3133 45.0873 52.1489 44.4619H56.1926C55.8861 44.9538 55.5486 45.4089 55.2982 45.9133C53.5345 49.4678 55.6588 53.0812 59.1185 53.3408C60.3552 53.4343 61.5532 53.2588 62.6942 52.6618C66.7465 62.6674 70.7796 72.6277 74.8377 82.6469H74.8368Z" fill="#030323"/>
<path d="M33.0832 39.6977C34.1864 40.59 35.2616 40.7193 36.1309 40.0193C36.4616 39.7534 36.7101 39.3298 36.9141 38.9294C37.0427 38.6772 37.151 38.6109 37.3918 38.6498C39.1148 38.9262 40.8243 38.8642 42.5135 38.3724C42.8558 38.2725 42.8568 38.2788 43.1517 38.8506C41.2063 39.7187 39.1941 39.5327 37.1259 39.4202C37.1684 39.8616 37.1945 40.2705 37.2506 40.6741C37.5967 43.1649 37.0756 45.4036 35.8853 47.5791C34.7414 49.6706 33.7861 51.8914 32.8598 54.1111C32.4846 55.0097 32.3841 56.0513 32.2013 57.0371C31.7943 59.2379 31.4065 61.4418 31.0246 63.6479C30.779 65.0657 30.575 66.4919 30.3207 67.9076C29.8266 70.656 29.3073 73.398 28.8036 76.1443C28.4274 78.1916 28.0542 80.239 27.6926 82.2884C27.6471 82.548 27.593 82.6836 27.3077 82.6826C24.7135 82.6658 22.1202 82.6668 19.526 82.6605C19.4795 82.6605 19.4322 82.6416 19.3258 82.6185C19.5666 81.661 19.7938 80.7098 20.0471 79.766C20.8042 76.9399 21.5836 74.1211 22.33 71.2918C23.3559 67.3989 24.3867 63.5081 25.3623 59.6005C25.926 57.3429 26.3911 55.057 26.8891 52.7805C27.0177 52.1909 27.0138 52.192 27.5234 52.44C30.0664 53.6802 33.5173 52.5577 34.5026 49.41C34.9619 47.9438 34.6244 46.5565 34.17 45.1629C33.7706 43.9374 33.4013 42.6962 33.1044 41.4381C32.9816 40.9189 33.0841 40.3367 33.0841 39.6998L33.0832 39.6977Z" fill="#030323"/>
<path d="M47.911 82.6332H39.3383C39.3383 82.0005 39.346 81.3941 39.3373 80.7887C39.2725 76.4649 39.2222 72.1401 39.1217 67.8162C39.1014 66.9523 38.9341 66.0821 38.7542 65.2339C38.0668 61.9884 39.7811 58.9416 42.2526 57.6404C43.322 57.0771 45.0692 56.787 46.1792 57.055C45.5894 57.61 45.0798 58.1649 44.5036 58.6189C42.5436 60.1618 41.9963 62.2648 42.181 64.7936C42.4914 69.0512 42.6964 73.3172 42.9352 77.5811C42.9855 78.4713 42.9826 79.3657 43.0329 80.2569C43.0425 80.4261 43.1837 80.5869 43.2649 80.7509C43.3268 80.5785 43.4515 80.403 43.4428 80.2349C43.1992 75.3057 42.942 70.3775 42.6877 65.4483C42.6239 64.2102 42.4875 62.9743 42.853 61.7509C43.2379 60.4613 44.1052 59.6237 45.0421 58.8354C45.1823 58.7177 45.3419 58.6179 45.455 58.4749C46.4886 57.1643 47.9042 56.4234 49.1941 55.4933C49.2946 55.4207 49.3759 55.3188 49.3865 55.3083C49.1013 55.0392 48.8305 54.8017 48.5801 54.5431C47.5039 53.4343 46.2005 52.9109 44.7443 52.809C44.1845 52.7701 43.6208 52.8027 42.9004 52.8027C43.087 52.4359 43.1673 52.1174 43.3578 51.9335C43.9572 51.3523 44.607 50.831 45.221 50.2666C46.0255 49.5267 46.918 49.4731 47.7775 50.0165C48.9214 50.7406 50.0343 51.5341 51.1018 52.3854C52.3521 53.3818 52.3801 54.9772 51.7091 56.2983C51.1579 57.3829 50.5014 58.4056 49.8903 59.4545C49.0548 60.888 48.2107 62.3163 47.384 63.7562C46.4316 65.4168 46.1908 67.2024 46.4316 69.1436C46.9702 73.4979 47.4246 77.8649 47.911 82.2276C47.9245 82.3463 47.9129 82.4682 47.9129 82.6343L47.911 82.6332Z" fill="#030323"/>
<path d="M27.3243 49.8147C27.0942 47.6601 26.8737 45.5045 26.63 43.3521C26.4173 41.476 26.1891 39.6021 25.9464 37.7303C25.8197 36.7549 26.1069 36.034 26.8137 35.3929C30.9473 31.6366 35.0548 27.8477 39.171 24.0694C39.6738 23.608 39.9716 23.6921 40.2095 24.3605C40.4241 24.9638 40.2878 25.5523 39.9397 25.9885C39.0472 27.1078 38.1364 28.2219 37.1434 29.234C35.604 30.8031 34.0715 32.3691 32.7642 34.181C32.5157 34.5258 32.1608 34.8001 31.8176 35.0429C30.7278 35.8101 29.612 36.5363 28.5233 37.3046C28.2748 37.4801 28.063 37.7418 27.8928 38.0088C27.83 38.1065 27.9392 38.3336 27.9702 38.5017C28.0862 38.4229 28.2148 38.3588 28.3154 38.261C28.5146 38.0677 28.6731 37.8112 28.8936 37.6567C30.8951 36.2484 32.9257 34.8884 34.9098 33.4506C36.9152 31.9971 38.5966 30.1305 40.2752 28.2681C40.4483 28.0758 40.5866 27.7647 40.9047 27.9665C41.2305 28.1735 41.4268 28.4636 41.3717 28.9145C41.2731 29.7206 40.8583 30.3333 40.3816 30.9145C38.6208 33.0649 36.5738 34.8789 34.5752 36.7497C33.6595 37.6063 32.798 38.5385 32.6588 39.9122C32.5795 40.6941 32.6046 41.537 32.7893 42.2916C33.1171 43.6306 33.6238 44.916 34.0192 46.236C35.2298 50.2729 31.9075 52.9835 28.7486 52.3276C28.3134 52.2373 27.9073 51.9966 27.48 51.8505C27.2044 51.7559 27.1618 51.572 27.185 51.2924C27.2266 50.8047 27.2353 50.3139 27.2576 49.8242C27.2808 49.821 27.303 49.8168 27.3262 49.8136L27.3243 49.8147Z" fill="#030323"/>
<path d="M62.5927 52.2183C61.2207 52.8352 59.8109 53.0664 58.3479 52.7238C56.6897 52.336 54.867 50.6439 55.1281 48.1015C55.3205 46.2318 56.1308 44.732 57.7939 43.9112C58.2155 43.7031 58.6351 43.4729 59.0141 43.1881C59.6397 42.7162 59.6185 42.2148 58.9706 41.7545C58.6496 41.5264 58.2754 41.3835 57.9612 41.1449C57.1615 40.5385 56.3619 39.9279 55.6028 39.2626C55.2973 38.9946 55.0159 38.8716 54.6263 38.8233C53.7551 38.715 53.0521 38.8233 52.4516 39.6609C52.1345 40.1034 51.536 40.3241 51.038 40.5858C50.9104 40.6531 50.6831 40.4944 50.5014 40.4397C50.5797 40.3104 50.6512 40.177 50.7363 40.0529C51.097 39.5295 51.6829 39.0545 51.7796 38.4806C51.9991 37.1753 52.8055 36.8106 53.7812 36.4764C55.0401 36.0455 56.1666 36.2283 57.263 37.0198C58.0482 37.5862 58.8865 38.0697 59.7152 38.5626C59.8505 38.6435 60.0555 38.5836 60.2286 38.5889C60.1474 38.4302 60.1039 38.2032 59.9801 38.1244C58.9 37.4401 57.8103 36.7749 56.7158 36.1211C55.9306 35.6524 55.0981 35.5767 54.2405 35.8489C53.6864 36.0245 53.1285 36.1884 52.5841 36.3955C51.9885 36.6225 51.7226 37.1532 51.5041 37.7723C51.2904 38.3776 50.9984 38.9631 50.659 39.497C50.4511 39.8249 50.0788 40.0298 49.6853 39.7545C49.3188 39.498 49.3981 39.1039 49.5286 38.7644C49.8323 37.9783 50.1542 37.1984 50.5072 36.4375C50.9674 35.4454 51.8454 34.9587 52.6789 34.4311C53.2484 34.0706 53.8295 33.7333 54.4039 33.3822C54.8612 33.1027 55.3224 33.0753 55.7769 33.3717C57.8403 34.7191 59.896 36.0812 61.9642 37.4202C62.8306 37.9804 63.258 38.7938 63.1497 39.8648C62.9795 41.5506 62.7397 43.228 62.5366 44.9107C62.3287 46.627 61.999 48.338 62.1953 50.0816C62.2746 50.7858 62.4506 51.4773 62.5908 52.2193L62.5927 52.2183Z" fill="#030323"/>
<path d="M42.4536 52.7858C41.7816 53.0686 41.1096 53.346 40.4414 53.635C40.2945 53.6981 40.1291 53.7717 40.0315 53.8957C39.8439 54.1332 39.5703 54.4128 39.5761 54.6682C39.5809 54.8752 39.9164 55.1821 40.1533 55.2525C40.9404 55.4869 41.742 55.7234 42.5503 55.798C44.1419 55.9451 45.7392 55.9294 47.3037 55.4943C47.5822 55.4165 47.8452 55.2778 48.1198 55.179C48.2252 55.1411 48.3412 55.1401 48.5404 55.1075C48.2735 55.7297 47.8761 56.0177 47.4071 56.1469C45.7382 56.6073 44.0423 56.6903 42.3318 56.4969C42.1829 56.4801 42.0301 56.4948 41.8793 56.4948C41.8696 56.5463 41.8609 56.5978 41.8512 56.6493C42.0533 56.7134 42.2554 56.7786 42.5435 56.8711C40.6029 57.8927 39.1438 59.3388 38.38 61.5501C38.1876 60.5506 37.9971 59.5511 37.8037 58.5527C37.3599 56.2541 37.7776 54.0533 38.3597 51.8441C38.8122 50.1258 39.1187 48.3622 39.4784 46.6154C39.811 45 40.1224 43.3794 40.455 41.764C40.5352 41.3741 40.6242 40.9778 40.775 40.6173C41.1309 39.7671 41.9837 39.6956 42.4227 40.5049C42.6354 40.8969 42.7833 41.3909 42.7882 41.8418C42.7988 42.6573 42.7011 43.4782 42.5996 44.2895C42.5774 44.4682 42.3695 44.6416 42.2157 44.7741C41.6259 45.2775 41.0052 45.741 40.4318 46.2654C40.1272 46.5439 39.9483 46.9496 40.1108 47.3995C40.2867 47.8861 40.6774 48.1541 41.128 48.1614C41.5998 48.1688 42.0746 48.0416 42.5455 47.9554C42.6963 47.9281 42.8375 47.8409 43.0434 47.7568C42.9052 49.4994 43.3296 51.2283 42.4536 52.7869V52.7858Z" fill="#030323"/>
<path d="M62.9166 37.4895C60.6327 35.9719 58.375 34.4774 56.123 32.9713C55.5206 32.5687 54.9318 32.6181 54.283 32.8483C53.4166 33.1552 52.527 33.3896 51.6375 33.605C51.36 33.6723 51.2546 33.8121 51.1269 34.0591C50.8166 34.6602 50.5004 35.2751 50.0865 35.7901C49.8864 36.0392 49.4725 36.1358 49.1399 36.1947C48.7696 36.2599 48.523 35.9624 48.6352 35.5841C48.9784 34.4322 49.3265 33.2771 49.7597 32.1631C49.8903 31.8257 50.2625 31.5093 50.5913 31.3685C51.9179 30.7978 53.2696 30.2975 54.6137 29.7752C55.2219 29.5387 55.7788 29.6743 56.299 30.0663C58.0501 31.3853 59.7654 32.7642 61.5658 33.9981C62.8218 34.8589 63.1235 36.0192 62.9185 37.4906L62.9166 37.4895Z" fill="#030323"/>
<path d="M26.017 35.1679C27.1976 32.8242 27.8619 30.2692 28.6344 27.7573C28.8375 27.0983 29.2068 26.6117 29.8247 26.2754C32.0573 25.0594 34.26 23.7782 36.4752 22.5222C36.5893 22.4581 36.7014 22.3667 36.8233 22.3467C37.0592 22.3089 37.4614 22.2195 37.5098 22.3173C37.6374 22.5758 37.6867 22.9384 37.6345 23.2327C37.5098 23.9348 37.0631 24.4288 36.5525 24.8397C35.341 25.815 34.1323 26.7946 32.8956 27.731C32.4528 28.0673 31.9268 28.2712 31.4559 28.5676C31.3118 28.658 31.1813 28.8346 31.1184 29.0048C31.0246 29.2613 30.9744 29.5429 30.9425 29.8183C30.7936 31.0774 30.0664 31.9056 29.202 32.6434C28.2941 33.418 27.3997 34.2094 26.4966 34.9903C26.3776 35.0933 26.2442 35.1763 26.1175 35.2688C26.0847 35.2352 26.0518 35.2026 26.0189 35.1689L26.017 35.1679Z" fill="#030323"/>
<path d="M20.1662 49.7958C20.7154 48.853 21.6185 48.4894 22.4568 48.0322C22.714 47.8924 23.0021 47.8157 23.2497 47.6601C23.4179 47.554 23.5407 47.3616 23.6838 47.2071C23.4943 47.1924 23.2748 47.1042 23.1191 47.1756C22.4568 47.4825 21.7867 47.7894 21.1698 48.1888C20.6796 48.5051 20.2696 48.9644 19.8123 49.3438C19.4071 49.6802 19.0107 50.0448 18.564 50.3002C18.211 50.502 17.7846 50.4379 17.4859 50.1153C17.1726 49.7768 17.2925 49.3659 17.4675 48.9949C17.9094 48.0585 18.5485 47.287 19.3336 46.6974C20.374 45.9165 21.4715 45.2271 22.5303 44.4745C23.3415 43.8986 24.0638 44.0436 24.7784 44.6805C25.5393 45.3605 25.9029 46.2339 25.5683 47.2355C24.8654 49.3417 24.2292 49.8536 21.9443 50.089C21.3477 50.151 20.7289 50.172 20.1662 49.7968V49.7958Z" fill="#030323"/>
<path d="M52.0465 52.5505C51.1598 51.8368 50.3467 51.0307 49.4078 50.4716C48.5027 49.9324 47.8984 49.2272 47.5793 48.1962C47.4111 47.6549 47.064 47.3795 46.5621 47.2891C45.8959 47.1704 45.2326 47.0295 44.5645 46.9276C43.8702 46.8214 43.2427 47.1 42.6045 47.3554C42.2052 47.5151 41.772 47.6339 41.3504 47.6465C41.1087 47.6538 40.7538 47.4773 40.6494 47.266C40.5653 47.0968 40.7103 46.6722 40.8757 46.4977C41.9112 45.4068 43.0725 44.5744 44.5925 44.5376C45.8282 44.5071 47.0185 44.7478 48.1875 45.1535C49.0055 45.4373 49.2695 46.2529 49.6099 46.9696C50.3177 48.461 50.9926 49.9713 51.6675 51.4816C51.8241 51.8316 51.9266 52.2099 52.0465 52.5515V52.5505Z" fill="#030323"/>
<path d="M25.2106 44.3979C23.8965 43.0684 22.6656 43.4719 21.4531 44.5797C21.4338 44.5314 21.4154 44.4841 21.396 44.4357C21.5372 44.3043 21.6774 44.1719 21.8196 44.0426C21.9665 43.9081 22.1386 43.7956 22.2576 43.6359C22.3726 43.4803 22.4345 43.2775 22.5196 43.0957C22.3349 43.1482 22.1106 43.144 21.9733 43.2607C20.9977 44.0889 20.053 44.9602 19.0716 45.7789C18.5804 46.1888 18.0544 46.5619 17.5052 46.8688C17.1029 47.0937 16.6504 46.9728 16.3623 46.5934C16.0577 46.1919 16.2192 45.7242 16.4928 45.3963C17.6251 44.0395 18.7747 42.6995 19.9457 41.3804C20.3344 40.9422 20.785 40.5628 21.2375 40.2002C22.098 39.5118 22.8638 39.5643 23.6093 40.3809C24.6082 41.4761 24.9998 42.8771 25.2115 44.3958L25.2106 44.3979Z" fill="#030323"/>
<path d="M24.3345 40.3314C23.8221 39.911 23.3328 39.5095 22.8145 39.0839C23.0746 38.8527 23.3937 38.5973 23.6761 38.2998C23.7882 38.1811 23.8192 37.9709 23.8869 37.8017C23.7312 37.8353 23.5407 37.8174 23.4266 37.9099C21.9192 39.1312 20.4272 40.3745 18.9188 41.5947C18.6394 41.8207 18.3242 42.0288 17.9964 42.1392C17.3427 42.3599 16.8303 41.7965 17.0265 41.0797C17.1252 40.7193 17.2789 40.3482 17.4936 40.0561C18.8134 38.2599 20.2793 36.614 22.0255 35.3055C23.2361 34.3985 24.3819 34.9419 24.7358 36.5121C24.9795 37.5915 24.7948 39.3162 24.3355 40.3293L24.3345 40.3314Z" fill="#030323"/>
<path d="M60.185 32.4195C59.0334 31.5398 57.9234 30.5845 56.7176 29.8025C55.7198 29.1551 55.0197 28.2523 54.3226 27.2959C54.0441 26.9133 53.6699 26.5854 53.2851 26.329C52.438 25.7646 51.6423 25.1634 51.21 24.146C51.1433 23.9894 51.0447 23.8066 51.0679 23.6552C51.123 23.2926 51.153 22.8417 51.3648 22.6189C51.5137 22.4623 51.9933 22.5159 52.2418 22.6547C54.5053 23.919 56.5194 25.547 58.0994 27.7362C58.4968 28.287 58.7491 28.967 59.0411 29.6007C59.4608 30.5098 59.8563 31.4326 60.2624 32.3501C60.2363 32.3733 60.2111 32.3964 60.185 32.4195Z" fill="#030323"/>
<path d="M25.1013 35.624C24.6565 35.2289 24.2494 34.8862 23.8685 34.5121C23.7892 34.4343 23.736 34.1999 23.7853 34.1106C24.0193 33.6818 24.2929 33.2782 24.5443 32.8778C24.1817 32.3817 23.7631 31.914 23.4662 31.3685C23.1945 30.8693 23.0021 30.2997 22.8803 29.7342C22.8155 29.4326 22.918 29.0479 23.0417 28.7484C23.2168 28.3248 23.5939 28.2397 23.9313 28.4867C24.8054 29.1278 25.6747 29.7826 26.4995 30.4941C26.979 30.9082 27.0371 31.5493 26.7866 32.1263C26.2829 33.2856 25.7182 34.4133 25.1738 35.5526C25.1467 35.6093 25.08 35.644 25.1023 35.623L25.1013 35.624Z" fill="#030323"/>
<path d="M45.2703 39.4244C45.6919 39.9058 45.9839 40.2736 46.3078 40.6026C46.9789 41.2816 47.6402 41.9773 48.3558 42.5974C49.3488 43.4571 49.7346 44.6984 50.2093 45.8818C50.5719 46.7867 50.8727 47.7221 51.1937 48.6459C51.2536 48.8172 51.2817 49.0012 51.2236 49.2261C50.9684 48.7121 50.7141 48.1971 50.4588 47.6843C50.161 47.0862 49.8516 46.4956 49.5663 45.8902C49.2473 45.2123 48.7551 44.7803 48.0821 44.5901C47.6625 44.4713 47.2448 44.3221 46.8174 44.259C46.391 44.196 46.1135 43.9616 45.892 43.5938C45.4869 42.9201 45.2249 42.2075 45.2635 41.3782C45.2916 40.7792 45.2693 40.177 45.2693 39.4244H45.2703Z" fill="#030323"/>
<path d="M49.8525 43.8345C49.1989 42.3578 47.8722 41.6064 46.8908 40.4839C46.5157 40.054 46.1473 39.6116 45.8204 39.1376C45.2935 38.3714 45.1629 37.5085 45.5101 36.6173C45.7276 36.0581 45.9162 36.0802 46.3116 36.4817C47.7059 37.9005 48.7454 39.5716 49.4058 41.5139C49.6533 42.2422 49.8187 43.0042 50.0217 43.7515L49.8535 43.8355L49.8525 43.8345Z" fill="#030323"/>
<path d="M55.5409 40.0036C54.3893 40.0825 53.3489 40.5186 52.3694 41.1335C51.9285 41.4099 51.4866 41.6978 51.093 42.0447C50.6018 42.4766 50.6579 42.7646 51.2294 43C52.2804 43.4341 53.3798 43.3952 54.4715 43.3437C55.8561 43.2775 57.2311 43.1356 58.461 42.3221C58.5644 42.2538 58.7588 42.3484 58.9116 42.3673C58.8516 42.5155 58.8303 42.7289 58.7259 42.8024C57.7687 43.4719 56.7254 43.8682 55.5805 43.9638C54.1504 44.0836 52.7223 44.2171 51.3125 43.7956C51.0843 43.7273 50.8532 43.6338 50.6512 43.5014C50.16 43.1808 49.9956 42.6091 50.3321 42.1151C50.6096 41.7073 51.005 41.3867 51.3734 41.062C52.0058 40.5039 52.6575 39.9721 53.3005 39.4277C53.3624 39.3751 53.4204 39.2648 53.4784 39.2669C53.9764 39.2837 54.4811 39.2742 54.9665 39.3741C55.1831 39.4182 55.3601 39.6946 55.5544 39.8659C55.5496 39.9122 55.5457 39.9584 55.5409 40.0036Z" fill="#030323"/>
<path d="M39.9822 32.7253V34.7086C39.8652 34.7538 39.8178 34.7916 39.7762 34.7853C39.461 34.7317 39.0743 34.7706 38.8528 34.5814C38.613 34.3765 38.8055 33.3486 39.0714 33.0869C39.5568 32.6097 40.0625 32.1578 40.5275 31.7258C40.8882 33.3202 41.625 34.883 42.6509 36.283C43.0106 36.7738 43.3848 37.2551 43.7919 37.6976C43.9417 37.8605 44.2038 37.9646 44.4213 37.9772C44.7965 37.9993 44.9299 38.1432 44.9125 38.5552C44.8855 39.2142 44.9048 39.8763 44.9048 40.6047C44.5132 40.6047 44.1931 40.6352 43.8828 40.5889C43.7696 40.5721 43.6217 40.3871 43.5927 40.2537C43.5424 40.0203 43.5772 39.767 43.5695 39.5232C43.5443 38.7265 43.3065 38.0465 42.7872 37.4454C41.713 36.201 40.9037 34.7632 40.3245 33.1741C40.2665 33.0165 40.2027 32.8609 40.1417 32.7043C40.0876 32.7117 40.0344 32.719 39.9803 32.7264L39.9822 32.7253Z" fill="#030323"/>
<path d="M33.2949 39.2595C34.1294 37.4192 35.7615 36.53 36.9325 35.1479C36.9683 35.169 37.005 35.19 37.0408 35.21C36.9305 36.0434 36.8213 36.8768 36.7072 37.7103C36.6743 37.952 36.6366 38.1948 36.5873 38.4334C36.3175 39.7219 34.9986 40.3693 33.9389 39.7282C33.73 39.6021 33.5405 39.4402 33.2949 39.2595Z" fill="#030323"/>
<path d="M42.6732 29.6418C42.8018 30.8999 42.7785 32.2084 43.1044 33.4034C43.4051 34.5048 44.081 35.4864 44.5944 36.5196C44.6399 36.61 44.7433 36.6909 44.7443 36.7781C44.7482 36.9915 44.7085 37.2048 44.6863 37.4182C44.5364 37.3194 44.344 37.2574 44.2425 37.1176C42.9033 35.2563 42.0756 33.1942 42.1413 30.7758C42.1704 29.7091 42.1471 28.6413 42.1413 27.5745C42.1404 27.296 42.1394 27.0038 42.4817 27.0143C42.796 27.0238 42.8385 27.2834 42.8317 27.5798C42.8182 28.2619 42.8279 28.944 42.8279 29.6261C42.7756 29.6313 42.7244 29.6366 42.6722 29.6418H42.6732Z" fill="#030323"/>
<path d="M52.3907 30.0159C51.3958 30.5182 50.1987 30.6086 49.4049 31.7658C49.4 30.9061 49.2946 30.1283 49.6437 29.4147C50.0324 28.6191 50.833 28.4183 51.5369 28.9155C51.8976 29.1709 52.235 29.4662 52.5822 29.7437C52.5183 29.834 52.4545 29.9255 52.3907 30.0159Z" fill="#030323"/>
<path d="M44.8584 47.4509C44.8584 48.2728 44.8661 49.0054 44.8507 49.7379C44.8478 49.8577 44.7724 50.0091 44.6863 50.0858C44.316 50.4148 43.9282 50.7216 43.4815 51.0905C43.4815 50.6008 43.4815 50.1919 43.4815 49.7831C43.4815 49.1704 43.4951 48.5576 43.4786 47.9459C43.4699 47.6138 43.583 47.4509 43.8886 47.4509C44.1912 47.4509 44.4929 47.4509 44.8584 47.4509Z" fill="#030323"/>
<path d="M43.5357 41.1713H44.8265V44.0279C44.4581 44.0699 44.1139 44.1246 43.7678 44.1361C43.6923 44.1382 43.5473 43.9837 43.5463 43.8997C43.5299 42.9979 43.5367 42.0951 43.5367 41.1723L43.5357 41.1713Z" fill="#030323"/>
<path d="M34.7454 22.8197C34.6922 21.2054 34.6409 19.6205 34.5858 18.0345C34.5752 17.7213 34.5114 17.4039 34.5452 17.097C34.5626 16.9351 34.7357 16.7922 34.8391 16.6409C34.9552 16.7838 35.1563 16.9162 35.1718 17.0707C35.2385 17.7287 35.2559 18.3929 35.281 19.055C35.3158 19.9788 35.3139 20.9058 35.3806 21.8265C35.4193 22.3657 35.2549 22.6799 34.7463 22.8187L34.7454 22.8197Z" fill="#030323"/>
<path d="M45.3003 47.5865C46.7449 47.6065 47.3811 48.1309 47.3753 49.3343C46.6762 49.0852 45.9926 49.0842 45.3003 49.5319V47.5854V47.5865Z" fill="#030323"/>
<path d="M38.7319 29.2445C38.5492 28.6538 38.6961 28.2723 39.11 27.875C39.8265 27.1866 40.483 26.4131 40.7334 25.3274V27.1498C40.0295 27.8866 39.3952 28.5508 38.7319 29.2445Z" fill="#030323"/>
<path d="M37.3087 29.6859C37.6278 30.3396 37.4063 30.6959 36.9799 31.0438C35.9695 31.8667 34.9881 32.7338 33.9941 33.582C33.9554 33.5357 33.9158 33.4895 33.8771 33.4443C35.0132 32.1999 36.1493 30.9555 37.3087 29.6859Z" fill="#030323"/>
<path d="M41.1415 35.9225H37.3937C37.3473 35.4475 37.9584 34.9598 38.5076 35.1374C39.0839 35.3235 39.6196 35.4159 40.2181 35.1658C40.718 34.9567 40.9597 35.1921 41.1415 35.9225Z" fill="#030323"/>
<path d="M23.5715 32.4679C23.8984 32.7412 23.908 32.9146 23.7398 33.2015C23.3965 33.7901 23.0774 34.3492 22.3793 34.5279C22.069 34.6077 21.7992 34.8726 21.455 34.9913C21.9365 33.9298 23.0185 33.4811 23.5715 32.4679Z" fill="#030323"/>
<path d="M31.5855 29.069C31.9781 29.1415 32.3242 29.2056 32.8193 29.2981C32.2285 29.8341 31.7547 30.264 31.2819 30.6928L31.1852 30.6255C31.3147 30.1231 31.4434 29.6207 31.5855 29.069Z" fill="#030323"/>
<path d="M34.3131 28.0432C34.1033 27.6617 34.1081 27.4494 34.3886 27.236C34.9445 26.8135 35.4725 26.3479 36.0555 25.9548C35.7306 26.9049 34.8904 27.3033 34.3131 28.0432Z" fill="#030323"/>
<path d="M38.2533 22.8345C38.5743 23.0688 38.8131 23.2433 39.1216 23.4693C38.8122 23.7478 38.5753 23.9601 38.2533 24.2502V22.8345Z" fill="#030323"/>
</g>
<defs>
<clipPath id="clip0_1500_276">
<rect width="76" height="82.6087" fill="white" transform="translate(0 0.043457)"/>
</clipPath>
</defs>
</svg>
