<svg width="36" height="36" viewBox="0 0 36 36" fill="none" xmlns="http://www.w3.org/2000/svg">
<g clip-path="url(#clip0_1486_277)">
<path d="M7.2 21.6H12.69L21.69 12.6C21.96 12.33 22.1625 12.0225 22.2975 11.6775C22.4325 11.3325 22.5 10.995 22.5 10.665C22.5 10.335 22.4249 10.0125 22.275 9.6975C22.1251 9.3825 21.9299 9.09 21.69 8.82L20.07 7.11C19.8 6.84 19.4999 6.6375 19.17 6.5025C18.8401 6.3675 18.495 6.3 18.135 6.3C17.805 6.3 17.4675 6.3675 17.1225 6.5025C16.7775 6.6375 16.47 6.84 16.2 7.11L7.2 16.11V21.6ZM9.9 18.9V17.19L14.445 12.645L15.345 13.455L16.155 14.355L11.61 18.9H9.9ZM15.345 13.455L16.155 14.355L14.445 12.645L15.345 13.455ZM16.515 21.6H28.8V18H20.115L16.515 21.6ZM0 36V3.6C0 2.61 0.352499 1.7625 1.0575 1.0575C1.7625 0.352499 2.61 0 3.6 0H32.4C33.39 0 34.2374 0.352499 34.9425 1.0575C35.6476 1.7625 36 2.61 36 3.6V25.2C36 26.19 35.6476 27.0374 34.9425 27.7425C34.2374 28.4476 33.39 28.8 32.4 28.8H7.2L0 36ZM5.67 25.2H32.4V3.6H3.6V27.225L5.67 25.2Z" fill="#E8E8EA"/>
</g>
<defs>
<clipPath id="clip0_1486_277">
<rect width="36" height="36" fill="white"/>
</clipPath>
</defs>
</svg>
