<svg width="62" height="84" viewBox="0 0 62 84" fill="none" xmlns="http://www.w3.org/2000/svg">
<g opacity="0.9" clip-path="url(#clip0_1500_263)">
<path d="M8.99517 7.99426C8.7094 8.06999 8.50909 8.12243 8.31145 8.17486C7.47817 6.29024 7.96959 4.50174 9.72696 3.93665C12.4912 3.04822 15.2368 2.08116 17.9716 1.07913C20.0949 0.301399 21.3261 1.81609 21.5959 3.74731C21.3795 3.8347 21.1525 3.925 20.8721 4.0386C21.3181 4.98236 21.6867 5.94361 22.2048 6.79707C22.6161 7.47577 22.52 8.02339 22.2288 8.6613C22.13 8.87394 22.0739 9.20018 22.1514 9.407C24.0823 14.5686 26.032 19.7185 27.9817 24.8714C27.995 24.9092 28.0217 24.9413 28.0698 25.0228C28.6974 24.7345 29.3384 24.4607 29.958 24.1344C30.0916 24.0645 30.1744 23.814 30.2225 23.6305C30.6551 21.9527 31.4083 20.604 33.0962 20.1613C34.2233 19.8642 34.4984 19.669 35.2622 18.6961C36.5495 17.0562 38.809 16.7183 40.4702 17.9155C40.6304 18.0291 40.7907 18.1427 40.8895 18.0669C41.672 17.6417 42.4172 17.0707 43.2425 16.8231C44.7728 16.3658 46.1509 16.893 47.3074 18.0582C47.5504 18.3029 47.7213 18.3786 48.0525 18.2213C50.1491 17.2193 52.3177 18.0116 53.4181 20.2021C53.6157 20.5953 53.8561 20.5225 54.1339 20.5196C56.6551 20.4846 58.3483 23.2693 57.2667 25.6695C56.2651 27.8978 53.6745 28.3639 51.9785 26.6162C51.7996 26.4327 51.6607 26.2084 51.5031 26.0016C51.431 26.0423 51.3616 26.0802 51.2895 26.121C51.9625 28.9523 52.6355 31.7836 53.3139 34.6382C55.8138 33.9741 57.8596 34.4896 59.1442 37.0326C60.0763 38.8793 59.7211 40.8309 58.1587 42.7796C59.3178 43.6011 60.282 44.5973 60.533 46.1731C60.7814 47.7286 60.4235 49.1005 59.4674 50.3735C61.2648 51.6609 62.1141 53.432 61.5185 55.736C60.9416 57.9644 59.3899 59.0596 57.3228 59.5431C57.5738 60.5685 57.8168 61.5996 58.0812 62.622C58.594 64.6144 59.0988 66.6097 59.6543 68.5846C59.8279 69.1993 59.6704 69.5634 59.2564 69.9479C57.9237 71.1858 56.3987 72.048 54.7588 72.6597C52.1468 73.6356 49.4547 74.2298 46.7011 74.4774C46.5702 74.489 46.4394 74.4774 46.3032 74.4774C46.1937 73.7637 46.0841 73.0675 45.9773 72.3714C45.9373 72.3772 45.8972 72.3801 45.8598 72.3859C45.8598 72.8636 45.8999 73.3472 45.8545 73.822C45.5847 76.6008 44.1024 78.299 41.7361 79.1321C39.1375 80.0467 36.5255 80.909 33.9188 81.7886C32.6235 82.2256 31.3121 82.6071 30.0355 83.0994C26.665 84.3927 23.3826 82.0683 22.4745 78.8059C22.0205 77.1688 21.5879 75.526 21.1445 73.8861C21.1231 73.8074 21.0964 73.7317 21.0724 73.6559C19.3177 73.8161 17.4428 75.36 15.2902 78.4389C14.5504 77.8563 13.7785 77.3057 13.0654 76.6766C8.50909 72.6743 4.81007 67.9089 2.20607 62.1647C1.96303 61.6258 1.99508 61.3229 2.41172 60.8889C4.43617 58.7771 5.42969 56.106 5.40565 53.1057C5.36826 48.7335 5.15193 44.3642 4.96765 39.9978C4.90088 38.4249 5.36826 37.1549 6.41788 36.1004C8.73878 33.7672 11.0437 31.4107 13.3726 29.0892C13.7198 28.7455 13.8186 28.4251 13.7171 27.9357C12.9586 24.248 12.2268 20.5545 11.4736 16.8668C11.2386 15.7133 10.9528 14.5715 10.7178 13.418C10.6324 12.9898 10.4641 12.6811 10.0875 12.515C9.53734 12.2733 9.35305 11.8188 9.31833 11.1868C9.25958 10.1381 9.11802 9.09241 9.00318 7.9797L8.99517 7.99426ZM35.3797 62.5812C32.8986 64.2794 30.4762 65.9456 28.0484 67.603C26.6543 68.5555 25.2495 69.4935 23.8553 70.446C23.5802 70.6324 23.3078 70.7955 23.452 71.2849C23.8527 72.651 24.1758 74.0463 24.5791 75.4124C25.1827 77.4689 26.8252 78.3456 28.7108 77.6902C31.5872 76.6941 34.4663 75.7153 37.3454 74.7337C38.0318 74.5007 38.4431 74.7861 38.4751 75.5755C38.4965 76.0736 38.4244 76.5746 38.395 77.0727C39.936 76.8339 40.3313 76.3416 40.099 74.7628C40.0188 74.2123 40.0028 73.7317 40.3206 73.2918C40.4729 73.0821 40.6839 72.7326 40.8334 72.753C41.0711 72.785 41.4023 73.0238 41.4797 73.2598C41.6507 73.7812 41.7228 74.3521 41.7682 74.9085C41.7976 75.2464 41.7068 75.5988 41.6667 75.9921C42.8766 75.2842 43.4321 73.7841 43.0582 72.3277C42.9166 71.7801 42.7243 71.247 42.5667 70.7052C40.3527 63.1463 38.144 55.5875 35.9245 48.0286C35.6281 47.0149 35.2862 46.0158 34.9631 45.0021C34.4075 45.3429 33.9268 45.6604 33.4274 45.9343C31.897 46.7732 30.2091 46.9771 28.5612 47.3412C28.1499 47.4315 27.8802 47.5858 27.6906 48.0257C27.3273 48.8646 26.8947 49.6685 26.4967 50.4871C26.3952 50.6968 26.3098 50.9152 26.1522 51.2794C28.9966 50.3123 31.686 49.4006 34.4102 48.4772C34.5811 48.7918 34.7414 49.0889 34.9097 49.4006C34.696 49.5753 34.5491 49.7151 34.3862 49.8229C31.2827 51.8969 28.174 53.965 25.0705 56.036C24.9263 56.1322 24.726 56.2225 24.6699 56.371C24.3174 57.2857 23.9969 58.2178 23.607 59.3072C27.8294 57.7109 31.9691 56.1438 36.1516 54.5621C36.2664 54.7777 36.3759 54.9903 36.4988 55.2234C36.3572 55.337 36.2557 55.4331 36.1435 55.5088C33.2698 57.3847 30.3907 59.2518 27.517 61.1306C25.7409 62.2929 23.9675 63.4609 22.2048 64.6523C22.0339 64.7688 21.8309 65.0805 21.8603 65.2552C21.9564 65.8029 22.1567 66.3272 22.3303 66.9098C26.6196 65.229 30.8367 63.5745 35.0806 61.9084C35.1821 62.1356 35.2622 62.3191 35.3797 62.5812ZM14.4222 32.0341C14.2245 32.1856 14.0696 32.2759 13.9441 32.4011C11.8983 34.4343 9.84982 36.4675 7.82003 38.5239C7.66513 38.6812 7.57966 39.0075 7.59034 39.2492C7.73724 42.9194 7.90817 46.5926 8.06307 50.2628C8.1245 51.6959 8.28207 53.1436 8.16456 54.5621C8.015 56.3419 7.63041 58.1013 7.34196 59.8665C7.08824 61.4365 6.8265 63.0065 6.55142 64.696C7.58767 64.2416 8.50108 63.8454 9.41448 63.4435C12.0158 62.2987 14.6519 61.2384 17.2051 59.9801C20.0335 58.5877 21.8416 56.1963 22.5146 52.829C22.6722 52.0396 22.9099 51.2415 23.2598 50.5366C23.9595 49.1267 24.8141 47.8101 25.5085 46.3974C25.992 45.4158 26.6837 44.941 27.6452 44.6963C29.1515 44.3118 30.6498 43.8807 32.1214 43.3593C33.7772 42.7738 34.72 41.4339 35.0485 39.593C35.3717 37.7957 34.1832 36.549 32.5674 36.9685C31.8142 37.1636 31.0744 37.4229 30.3213 37.6151C29.8192 37.7433 29.6482 38.087 29.8432 38.5385C30.0969 39.124 30.4548 39.657 30.7833 40.2425C30.0542 41.0203 29.0072 40.3387 28.0297 38.256C26.9054 38.5851 25.7516 38.8647 24.6379 39.2755C24.1091 39.4706 23.5856 39.8347 23.185 40.2629C21.3688 42.1941 19.6035 44.1807 17.8114 46.1411C17.109 46.9101 16.3852 47.6587 15.6748 48.4102C12.6675 45.2235 12.0051 40.4639 13.8239 36.2344C14.3741 34.9528 14.748 33.5954 14.4168 32.0341H14.4222ZM36.3439 35.4363C36.0073 34.6557 35.7002 33.9391 35.3877 33.2167C39.1775 31.7224 43.0315 30.665 47.0082 30.0038C47.0536 30.0912 47.1071 30.1757 47.1444 30.2689C47.2353 30.5019 47.3341 30.732 47.4035 30.9738C48.7068 35.3868 49.7084 39.8784 50.1918 44.4866C50.6966 49.319 51.3643 54.1165 52.3979 58.847C52.94 61.3316 53.6024 63.7843 54.2113 66.2485C54.3021 66.6185 54.433 66.9797 53.9389 67.1661C51.829 67.9613 49.6897 68.6167 47.4676 68.9138C47.059 68.9691 46.9495 68.7856 46.856 68.3953C45.0666 60.9297 42.93 53.5951 40.0001 46.5547C39.239 44.7225 38.4324 42.9107 37.6045 40.994C37.2893 41.8737 37.1771 42.5903 37.4602 43.3826C37.8982 44.6206 38.2695 45.8906 38.638 47.1577C40.9589 55.101 43.2745 63.0473 45.574 70.9994C45.7049 71.4509 45.8838 71.6111 46.3032 71.5383C47.7934 71.2761 49.3024 71.1159 50.774 70.7664C52.721 70.3003 54.636 69.6915 56.3853 68.5876C56.7085 68.3837 56.8474 68.206 56.7272 67.7487C55.8992 64.6261 55.1087 61.4918 54.3021 58.3634C54.2674 58.2265 54.214 58.0809 54.1285 57.9789C52.8679 56.4875 52.7077 54.8097 53.2338 52.9076C53.3914 52.3396 53.3273 51.4163 52.9961 51.023C51.5672 49.3248 51.3402 47.5247 52.1895 45.4769C52.2857 45.2439 52.3284 44.9497 52.299 44.6992C51.7328 40.0037 50.8435 35.3781 49.679 30.8165C49.2864 29.2756 48.8938 27.7347 48.5092 26.2288C48.0071 26.1181 47.7427 26.2695 47.505 26.7123C46.1482 29.2436 42.6762 29.564 40.9456 27.3036C40.6171 26.8754 40.3206 26.8055 39.9093 26.9482C37.292 27.8541 34.6773 28.7659 32.0653 29.6863C31.8757 29.7533 31.7047 29.8815 31.4697 30.0097C31.6673 30.164 31.7875 30.2631 31.913 30.3592C33.0561 31.236 34.0176 32.3283 34.6693 33.6566C35.0592 34.4547 35.5533 35.0081 36.3412 35.4305L36.3439 35.4363ZM18.8904 10.8489C19.4913 12.4888 20.0842 14.0705 20.6397 15.6696C20.6958 15.8328 20.581 16.1503 20.4501 16.2901C20.0094 16.7649 19.518 17.1814 19.0693 17.6475C18.9545 17.7669 18.845 18.0174 18.8824 18.1601C19.0827 18.9437 19.331 19.7156 19.5981 20.6011C20.3059 19.9719 20.9389 19.4098 21.6226 18.801C21.7962 19.2466 21.9484 19.6078 22.0766 19.9778C23.1369 23.0159 24.2052 26.0511 25.2441 29.0979C25.602 30.1495 26.1255 31.0379 26.9 31.7981C28.0938 32.9691 29.2209 34.2187 30.38 35.4334C30.4708 35.5266 30.607 35.6606 30.7005 35.6431C31.24 35.5295 31.7715 35.3781 32.3644 35.2208C32.1881 34.9586 32.0893 34.7722 31.9585 34.6236C30.9916 33.5284 30.0489 32.4098 29.0393 31.3641C28.1232 30.4145 27.4422 29.3484 26.9748 28.0522C24.8435 22.1187 22.6588 16.2085 20.4955 10.2867C20.2952 9.73615 20.1777 9.08367 19.2402 9.50312C19.5607 8.86812 19.7958 8.43993 19.9961 7.99135C20.0735 7.81658 20.1483 7.56607 20.0896 7.41169C19.8011 6.62813 19.4779 5.86205 19.1361 5.1047C19.0827 4.98819 18.861 4.87459 18.7435 4.89789C18.4096 4.97071 18.0891 5.11635 17.7152 5.25035C17.9903 5.99895 18.244 6.69221 18.5138 7.42334C16.4253 8.13699 14.4195 8.82151 12.3897 9.51477C12.2054 8.70791 12.0398 7.98261 11.8689 7.234C11.5164 7.34469 11.2253 7.4379 10.9368 7.5282C11.041 9.12154 11.0169 10.7644 12.8785 11.2217C12.8918 11.2246 12.9025 11.2537 12.9239 11.2858C12.3336 11.781 12.7022 12.3024 12.8678 12.9112C14.8842 12.2208 16.8552 11.5479 18.8904 10.8518V10.8489ZM29.3224 27.5978C29.3491 27.6677 29.3758 27.7405 29.4025 27.8104C33.374 25.9608 37.4682 24.5713 41.7335 23.779C41.8029 24.0208 41.843 24.181 41.8937 24.3383C42.289 25.6141 43.0956 26.2521 44.2253 26.1909C45.2429 26.1355 45.9586 25.3782 46.2604 24.1053C46.3005 23.9305 46.5355 23.6917 46.6904 23.6829C48.5626 23.5664 50.4375 23.4761 52.3151 23.4062C52.6516 23.3945 52.9934 23.4994 53.3299 23.5518C53.3433 23.881 53.3246 24.1344 53.37 24.3762C53.4608 24.8539 53.7306 25.1889 54.1873 25.2355C54.6547 25.2821 55.0125 25.0403 55.2128 24.5713C55.4772 23.9567 55.1995 23.278 54.4944 23.0392C53.7599 22.7887 52.9961 22.6168 52.2349 22.4799C51.9171 22.4217 51.7515 22.3547 51.6233 21.9876C50.9583 20.0885 48.7576 19.736 47.5744 21.3148C47.4596 21.4691 47.3501 21.6264 47.2246 21.8012C46.5195 20.1321 45.5046 19.2874 44.3348 19.4709C42.9033 19.6923 42.3504 20.7701 42.289 22.2731H40.7132C40.2592 20.406 39.1535 19.4622 37.9223 19.8729C36.6243 20.3069 36.2157 21.6264 36.8032 23.3742C36.245 23.08 35.6708 22.6984 35.0512 22.4741C34.3675 22.2265 33.6998 22.4537 33.155 22.9664C32.3137 23.7587 32.4125 24.7257 32.8184 25.7132C31.6273 26.3569 30.4762 26.9803 29.3251 27.6036L29.3224 27.5978ZM58.3563 46.7586C58.124 46.3158 57.9557 45.8032 57.6326 45.4595C57.4162 45.2293 56.8794 45.0429 56.6657 45.1769C55.9526 45.6284 55.2716 46.176 54.676 46.7935C54.2006 47.2887 54.23 47.9907 54.5051 48.6287C54.7535 49.2025 55.1888 49.5666 55.7817 49.5724C56.8527 49.5782 58.2308 48.0169 58.3563 46.7615V46.7586ZM55.3998 54.7864C55.5253 55.8613 56.2304 56.7672 56.9542 56.7118C57.8542 56.6448 59.2991 55.1243 59.3472 54.1485C59.3846 53.4145 59.0694 52.8436 58.4979 52.462C57.9771 52.1124 57.5845 52.4678 57.1892 52.7853C56.8474 53.0591 56.4548 53.2805 56.1636 53.6067C55.8592 53.9475 55.6482 54.3874 55.3971 54.7835L55.3998 54.7864ZM54.5799 42.1155C55.5761 41.3756 56.6123 40.8921 57.1144 39.7299C57.4616 38.9259 57.248 38.1191 56.5589 37.4899C55.9687 36.951 55.5494 36.9539 54.7802 37.4957C54.6173 37.6093 54.417 37.6938 54.3074 37.8511C54.1632 38.0579 53.9816 38.3433 54.0083 38.5647C54.1552 39.7036 54.3662 40.8368 54.5799 42.1155ZM44.9945 36.7092C45.9479 36.7325 46.7331 35.9111 46.7545 34.8625C46.7732 33.8808 45.9933 32.9924 45.088 32.9662C44.1692 32.94 43.3493 33.7702 43.3252 34.7489C43.3012 35.78 44.0731 36.6859 44.9945 36.7063V36.7092ZM17.5283 34.443C16.4787 37.4287 15.2047 40.3649 16.3425 43.6477C16.8739 43.3098 17.2425 42.9544 17.1036 42.1242C16.9701 41.329 17.0262 40.4814 17.0823 39.6658C17.2024 37.9239 17.376 36.1849 17.5283 34.4459V34.443ZM48.4878 41.9611C48.4772 41.1776 47.8896 40.5134 47.2085 40.5192C46.5515 40.5251 45.964 41.23 45.9666 42.0077C45.972 42.7709 46.5222 43.3389 47.2486 43.3243C47.9857 43.3098 48.4959 42.7476 48.4852 41.9611H48.4878ZM46.6343 56.3361C47.067 56.3273 47.4169 55.9108 47.4089 55.4127C47.4008 54.9233 47.0403 54.5388 46.5916 54.5359C46.1322 54.5359 45.7957 54.903 45.7904 55.4185C45.785 55.9254 46.1723 56.3477 46.637 56.339L46.6343 56.3361ZM50.3574 62.8725C50.1117 63.257 49.8713 63.4726 49.8766 63.6765C49.882 63.8571 50.1758 64.1862 50.3147 64.1688C50.5096 64.1455 50.7954 63.8833 50.8274 63.6852C50.8541 63.4988 50.5978 63.2629 50.3574 62.8696V62.8725ZM45.2749 48.9432C45.0746 49.2957 44.8342 49.5404 44.8743 49.7006C44.925 49.9074 45.2001 50.0472 45.3791 50.2162C45.5179 50.0268 45.761 49.8346 45.761 49.6452C45.761 49.4588 45.5126 49.2695 45.2722 48.9462L45.2749 48.9432ZM42.1127 42.8058C41.8002 42.5583 41.6106 42.2932 41.4424 42.3077C41.2821 42.3223 41.0604 42.6165 41.0284 42.8175C41.007 42.9457 41.2821 43.2573 41.4263 43.2573C41.6106 43.2573 41.7949 43.0272 42.1127 42.8058ZM40.7025 38.1831C40.9162 37.8249 41.1245 37.6297 41.1085 37.4578C41.0925 37.2743 40.8655 37.1141 40.7293 36.9452C40.5877 37.1054 40.3554 37.2539 40.334 37.4316C40.3126 37.6064 40.5103 37.8132 40.7052 38.1831H40.7025Z" fill="#030323"/>
<path d="M39.1375 9.81785C39.1375 8.99642 39.1401 8.17499 39.1375 7.35357C39.1348 6.68361 39.3405 6.1389 39.9387 5.88549C40.5476 5.62624 41.1219 5.76023 41.6106 6.23212C42.0967 6.704 42.2356 7.27783 41.9685 7.94488C41.3275 9.54695 40.6625 11.1374 39.9814 12.7191C39.904 12.8997 39.6583 12.9958 39.4927 13.1298C39.3805 12.9113 39.1829 12.6958 39.1749 12.4744C39.1375 11.5918 39.1588 10.7063 39.1588 9.82076H39.1402L39.1375 9.81785Z" fill="#030323"/>
<path d="M33.6864 7.3623C34.4316 7.3623 34.9711 7.85458 35.15 8.71387C35.3904 9.86736 35.6254 11.0209 35.8524 12.1743C35.8925 12.3753 35.9326 12.6084 35.8818 12.7977C35.7803 13.1589 35.5426 13.3657 35.2408 13.0278C34.3114 11.9821 33.3847 10.9335 32.4926 9.84989C32.1 9.37218 32.0439 8.77504 32.3431 8.19538C32.6342 7.6332 33.0989 7.36813 33.6891 7.36522L33.6864 7.3623Z" fill="#030323"/>
<path d="M46.5702 9.49451C47.4008 9.51781 47.9029 9.97222 48.0979 10.7004C48.2822 11.3937 48.1246 11.9937 47.5264 12.3142C46.418 12.9055 45.2776 13.421 44.1398 13.9395C43.9983 14.0036 43.7125 13.9512 43.6324 13.8376C43.5469 13.7182 43.5603 13.4036 43.6484 13.2667C44.3829 12.1336 45.1253 11.0034 45.9105 9.91105C46.0895 9.66345 46.4474 9.57024 46.5729 9.49451H46.5702Z" fill="#030323"/>
<path d="M31.9237 17.1961C31.427 17.0913 30.8661 17.0243 30.3373 16.8466C29.8699 16.6922 29.8485 16.2378 29.9901 15.8038C30.1343 15.3668 30.4815 15.0989 30.8501 15.3319C31.3896 15.6727 31.8863 16.1213 32.3404 16.5932C32.5807 16.8408 32.3564 17.1816 31.9237 17.1961Z" fill="#030323"/>
</g>
<defs>
<clipPath id="clip0_1500_263">
<rect width="61.9565" height="82.6087" fill="white" transform="translate(0 0.869507)"/>
</clipPath>
</defs>
</svg>
